<svg width="18" height="20" viewBox="0 0 18 20" fill="none" xmlns="http://www.w3.org/2000/svg">
<path d="M17.0588 6.5334C16.0446 2.01853 12.1051 0 8.65312 0C8.65312 0 8.65312 0 8.64337 0C5.20114 0 1.27135 2.01853 0.247463 6.52365C-0.903195 11.5553 2.17823 15.8167 4.96711 18.508C6.00075 19.5027 7.32694 20 8.65312 20C9.9793 20 11.3055 19.5027 12.3294 18.508C15.1183 15.8167 18.1997 11.5651 17.0588 6.5334ZM11.8516 7.34276L7.95102 11.2433C7.80475 11.3896 7.61948 11.4578 7.4342 11.4578C7.24893 11.4578 7.06365 11.3896 6.91738 11.2433L5.45468 9.7806C5.17189 9.49781 5.17189 9.02974 5.45468 8.74695C5.73747 8.46416 6.20553 8.46416 6.48832 8.74695L7.4342 9.69283L10.8179 6.30912C11.1007 6.02633 11.5688 6.02633 11.8516 6.30912C12.1343 6.59191 12.1343 7.05997 11.8516 7.34276Z" fill="white"/>
</svg>
