<svg width="36" height="36" viewBox="0 0 36 36" fill="none" xmlns="http://www.w3.org/2000/svg">
<rect width="36" height="36" rx="18" fill="white"/>
<g clip-path="url(#clip0_9_67)">
<path d="M23.8755 15.236C23.1681 15.0847 22.5276 14.7114 22.0472 14.1705C21.5668 13.6296 21.2718 12.9494 21.2051 12.2291V11.9167H18.7649V21.6011C18.7634 22.0298 18.6276 22.4473 18.3765 22.7949C18.1255 23.1425 17.7719 23.4026 17.3654 23.5389C16.9589 23.6751 16.5199 23.6805 16.1101 23.5544C15.7003 23.4283 15.3404 23.177 15.0808 22.8357C14.8173 22.4888 14.671 22.0669 14.6634 21.6312C14.6558 21.1955 14.7871 20.7688 15.0383 20.4128C15.2896 20.0568 15.6477 19.7901 16.0607 19.6513C16.4738 19.5126 16.9203 19.509 17.3355 19.6411V17.162C16.4096 17.034 15.4668 17.1986 14.6391 17.6328C13.8114 18.067 13.14 18.749 12.719 19.5835C12.298 20.418 12.1484 21.3633 12.2911 22.287C12.4337 23.2108 12.8616 24.0668 13.5147 24.7355C14.1376 25.3728 14.9363 25.81 15.8088 25.9914C16.6813 26.1728 17.588 26.0901 18.4133 25.7538C19.2386 25.4175 19.9449 24.8429 20.4422 24.1034C20.9394 23.3639 21.205 22.4929 21.2051 21.6018V16.6534C22.1913 17.3584 23.3737 17.7364 24.586 17.7343V15.3097C24.3472 15.31 24.1091 15.2853 23.8755 15.236Z" fill="#D47815"/>
</g>
<defs>
<clipPath id="clip0_9_67">
<rect width="16" height="16" fill="white" transform="translate(10 10.5)"/>
</clipPath>
</defs>
</svg>
