<svg width="38" height="36" viewBox="0 0 38 36" fill="none" xmlns="http://www.w3.org/2000/svg">
<rect width="38" height="36" rx="18" fill="white"/>
<path d="M25.9733 14.5001C25.4599 14.7334 24.9066 14.8867 24.3333 14.9601C24.9199 14.6067 25.3733 14.0467 25.5866 13.3734C25.0333 13.7067 24.4199 13.9401 23.7733 14.0734C23.2466 13.5001 22.5066 13.1667 21.6666 13.1667C20.0999 13.1667 18.8199 14.4467 18.8199 16.0267C18.8199 16.2534 18.8466 16.4734 18.8933 16.6801C16.5199 16.5601 14.4066 15.4201 12.9999 13.6934C12.7533 14.1134 12.6133 14.6067 12.6133 15.1267C12.6133 16.1201 13.1133 17.0001 13.8866 17.5001C13.4133 17.5001 12.9733 17.3667 12.5866 17.1667V17.1867C12.5866 18.5734 13.5733 19.7334 14.8799 19.9934C14.4604 20.1082 14.02 20.1242 13.5933 20.0401C13.7743 20.6084 14.129 21.1057 14.6073 21.462C15.0856 21.8184 15.6636 22.0159 16.2599 22.0267C15.249 22.827 13.9959 23.2596 12.7066 23.2534C12.4799 23.2534 12.2533 23.2401 12.0266 23.2134C13.2933 24.0267 14.7999 24.5001 16.4133 24.5001C21.6666 24.5001 24.5533 20.1401 24.5533 16.3601C24.5533 16.2334 24.5533 16.1134 24.5466 15.9867C25.1066 15.5867 25.5866 15.0801 25.9733 14.5001Z" fill="#D47815"/>
</svg>
