<svg width="160" height="36" viewBox="0 0 160 36" fill="none" xmlns="http://www.w3.org/2000/svg">
<path d="M50.0013 17.6198C51.0993 17.8538 51.9813 18.4028 52.6473 19.2668C53.3133 20.1128 53.6463 21.0848 53.6463 22.1828C53.6463 23.7668 53.0883 25.0268 51.9723 25.9628C50.8743 26.8808 49.3353 27.3398 47.3553 27.3398H38.5263V8.38584H47.0583C48.9843 8.38584 50.4873 8.82684 51.5673 9.70884C52.6653 10.5908 53.2143 11.7878 53.2143 13.2998C53.2143 14.4158 52.9173 15.3428 52.3233 16.0808C51.7473 16.8188 50.9733 17.3318 50.0013 17.6198ZM43.1433 16.0538H46.1673C46.9233 16.0538 47.4993 15.8918 47.8953 15.5678C48.3093 15.2258 48.5163 14.7308 48.5163 14.0828C48.5163 13.4348 48.3093 12.9398 47.8953 12.5978C47.4993 12.2558 46.9233 12.0848 46.1673 12.0848H43.1433V16.0538ZM46.5453 23.6138C47.3193 23.6138 47.9133 23.4428 48.3273 23.1008C48.7593 22.7408 48.9753 22.2278 48.9753 21.5618C48.9753 20.8958 48.7503 20.3738 48.3003 19.9958C47.8683 19.6178 47.2653 19.4288 46.4913 19.4288H43.1433V23.6138H46.5453ZM58.6461 10.7078C57.8361 10.7078 57.1701 10.4738 56.6481 10.0058C56.1441 9.51984 55.8921 8.92584 55.8921 8.22384C55.8921 7.50384 56.1441 6.90984 56.6481 6.44184C57.1701 5.95584 57.8361 5.71284 58.6461 5.71284C59.4381 5.71284 60.0861 5.95584 60.5901 6.44184C61.1121 6.90984 61.3731 7.50384 61.3731 8.22384C61.3731 8.92584 61.1121 9.51984 60.5901 10.0058C60.0861 10.4738 59.4381 10.7078 58.6461 10.7078ZM60.9411 12.2738V27.3398H56.3241V12.2738H60.9411ZM72.684 23.4248V27.3398H70.335C68.661 27.3398 67.356 26.9348 66.42 26.1248C65.484 25.2968 65.016 23.9558 65.016 22.1018V16.1078H63.18V12.2738H65.016V8.60184H69.633V12.2738H72.657V16.1078H69.633V22.1558C69.633 22.6058 69.741 22.9298 69.957 23.1278C70.173 23.3258 70.533 23.4248 71.037 23.4248H72.684ZM83.6528 23.4248V27.3398H81.3038C79.6298 27.3398 78.3248 26.9348 77.3888 26.1248C76.4528 25.2968 75.9848 23.9558 75.9848 22.1018V16.1078H74.1488V12.2738H75.9848V8.60184H80.6018V12.2738H83.6258V16.1078H80.6018V22.1558C80.6018 22.6058 80.7098 22.9298 80.9258 23.1278C81.1418 23.3258 81.5018 23.4248 82.0058 23.4248H83.6528ZM93.0825 27.5558C91.6065 27.5558 90.2745 27.2408 89.0865 26.6108C87.9165 25.9808 86.9895 25.0808 86.3055 23.9108C85.6395 22.7408 85.3065 21.3728 85.3065 19.8068C85.3065 18.2588 85.6485 16.8998 86.3325 15.7298C87.0165 14.5418 87.9525 13.6328 89.1405 13.0028C90.3285 12.3728 91.6605 12.0578 93.1365 12.0578C94.6125 12.0578 95.9445 12.3728 97.1325 13.0028C98.3205 13.6328 99.2565 14.5418 99.9405 15.7298C100.625 16.8998 100.967 18.2588 100.967 19.8068C100.967 21.3548 100.616 22.7228 99.9135 23.9108C99.2295 25.0808 98.2845 25.9808 97.0785 26.6108C95.8905 27.2408 94.5585 27.5558 93.0825 27.5558ZM93.0825 23.5598C93.9645 23.5598 94.7115 23.2358 95.3235 22.5878C95.9535 21.9398 96.2685 21.0128 96.2685 19.8068C96.2685 18.6008 95.9625 17.6738 95.3505 17.0258C94.7565 16.3778 94.0185 16.0538 93.1365 16.0538C92.2365 16.0538 91.4895 16.3778 90.8955 17.0258C90.3015 17.6558 90.0045 18.5828 90.0045 19.8068C90.0045 21.0128 90.2925 21.9398 90.8685 22.5878C91.4625 23.2358 92.2005 23.5598 93.0825 23.5598ZM108.033 14.7848C108.573 13.9568 109.248 13.3088 110.058 12.8408C110.868 12.3548 111.768 12.1118 112.758 12.1118V16.9988H111.489C110.337 16.9988 109.473 17.2508 108.897 17.7548C108.321 18.2408 108.033 19.1048 108.033 20.3468V27.3398H103.416V12.2738H108.033V14.7848ZM129.167 19.5638C129.167 19.9958 129.14 20.4458 129.086 20.9138H118.637C118.709 21.8498 119.006 22.5698 119.528 23.0738C120.068 23.5598 120.725 23.8028 121.499 23.8028C122.651 23.8028 123.452 23.3168 123.902 22.3448H128.816C128.564 23.3348 128.105 24.2258 127.439 25.0178C126.791 25.8098 125.972 26.4308 124.982 26.8808C123.992 27.3308 122.885 27.5558 121.661 27.5558C120.185 27.5558 118.871 27.2408 117.719 26.6108C116.567 25.9808 115.667 25.0808 115.019 23.9108C114.371 22.7408 114.047 21.3728 114.047 19.8068C114.047 18.2408 114.362 16.8728 114.992 15.7028C115.64 14.5328 116.54 13.6328 117.692 13.0028C118.844 12.3728 120.167 12.0578 121.661 12.0578C123.119 12.0578 124.415 12.3638 125.549 12.9758C126.683 13.5878 127.565 14.4608 128.195 15.5948C128.843 16.7288 129.167 18.0518 129.167 19.5638ZM124.442 18.3488C124.442 17.5568 124.172 16.9268 123.632 16.4588C123.092 15.9908 122.417 15.7568 121.607 15.7568C120.833 15.7568 120.176 15.9818 119.636 16.4318C119.114 16.8818 118.79 17.5208 118.664 18.3488H124.442ZM140.782 12.1118C142.546 12.1118 143.95 12.6878 144.994 13.8398C146.056 14.9738 146.587 16.5398 146.587 18.5378V27.3398H141.997V19.1588C141.997 18.1508 141.736 17.3678 141.214 16.8098C140.692 16.2518 139.99 15.9728 139.108 15.9728C138.226 15.9728 137.524 16.2518 137.002 16.8098C136.48 17.3678 136.219 18.1508 136.219 19.1588V27.3398H131.602V12.2738H136.219V14.2718C136.687 13.6058 137.317 13.0838 138.109 12.7058C138.901 12.3098 139.792 12.1118 140.782 12.1118ZM158.193 23.4248V27.3398H155.844C154.17 27.3398 152.865 26.9348 151.929 26.1248C150.993 25.2968 150.525 23.9558 150.525 22.1018V16.1078H148.689V12.2738H150.525V8.60184H155.142V12.2738H158.166V16.1078H155.142V22.1558C155.142 22.6058 155.25 22.9298 155.466 23.1278C155.682 23.3258 156.042 23.4248 156.546 23.4248H158.193Z" fill="#263238"/>
<rect x="0.852295" y="3.33984" width="9" height="9" fill="#3EBA59"/>
<rect x="0.852295" y="12.3398" width="9" height="10" fill="#83EBFF"/>
<rect x="0.852295" y="22.3398" width="9" height="9" fill="#20C1E1"/>
<rect x="9.85229" y="3.33984" width="10" height="9" fill="#83EBFF"/>
<rect x="9.85229" y="22.3398" width="10" height="9" fill="#83EBFF"/>
<rect x="19.8523" y="3.33984" width="9" height="9" fill="#20C1E1"/>
<rect x="19.8523" y="12.3398" width="9" height="10" fill="#83EBFF"/>
<rect x="19.8523" y="22.3398" width="9" height="9" fill="#3EBA59"/>
<rect x="5.85229" y="8.33984" width="18" height="18" fill="white"/>
</svg>
