<svg width="82" height="80" viewBox="0 0 82 80" fill="none" xmlns="http://www.w3.org/2000/svg">
<g style="mix-blend-mode:multiply">
<path d="M41.0948 79.1242C63.01 79.1242 80.7758 61.536 80.7758 39.8399C80.7758 18.1438 63.01 0.555664 41.0948 0.555664C19.1795 0.555664 1.4137 18.1438 1.4137 39.8399C1.4137 61.536 19.1795 79.1242 41.0948 79.1242Z" fill="white"/>
<path d="M41.0948 79.6801C18.9075 79.6801 0.852295 61.8055 0.852295 39.8401C0.852295 17.8747 18.9075 0 41.0948 0C63.2821 0 81.3373 17.8747 81.3373 39.8401C81.3373 61.8055 63.2821 79.6801 41.0948 79.6801ZM41.0948 1.11161C19.5251 1.11161 1.97513 18.4861 1.97513 39.8401C1.97513 61.1941 19.5251 78.5685 41.0948 78.5685C62.6645 78.5685 80.2144 61.1941 80.2144 39.8401C80.2144 18.4861 62.6645 1.11161 41.0948 1.11161Z" fill="#263238"/>
<path d="M46.754 4.5465C47.0235 4.56873 47.2593 4.57984 47.4502 4.57984L47.4277 4.7577C47.1133 4.80217 46.8439 5.0356 46.6305 5.48025L43.9582 10.7715L43.8796 10.7604L43.8122 10.7493L42.1167 4.84663C42.0044 4.45757 41.8135 4.24636 41.5441 4.21301L41.5665 4.03516C41.8135 4.07962 42.1392 4.11297 42.5434 4.15743C43.0711 4.2019 43.4641 4.23525 43.7224 4.23525L43.6999 4.4131C43.4641 4.40199 43.2957 4.4131 43.1946 4.44645C43.0936 4.4798 43.0374 4.56873 43.0262 4.67989C43.015 4.77993 43.0374 4.92444 43.0936 5.11342L44.3399 9.62655L46.1926 5.93601C46.3498 5.63587 46.4284 5.39132 46.4509 5.21346C46.4733 5.02449 46.4172 4.87998 46.2937 4.77993C46.1702 4.67989 45.968 4.62431 45.6986 4.59096L45.721 4.4131C46.0466 4.46868 46.3947 4.51315 46.754 4.5465Z" fill="#263238"/>
<path d="M54.2998 6.89222C54.1875 6.89222 54.0977 6.93668 54.0303 7.02561C53.963 7.11454 53.8844 7.25905 53.8058 7.47025L52.2001 11.6944C52.1215 11.9056 52.0766 12.0723 52.0766 12.1835C52.0766 12.2946 52.1103 12.3836 52.1889 12.4503C52.2675 12.517 52.4134 12.5948 52.6155 12.6837L52.5482 12.8504C52.2899 12.7393 51.9306 12.5948 51.4703 12.4169C50.9762 12.2279 50.6057 12.1057 50.3586 12.0279L50.426 11.8611C50.6394 11.9278 50.7965 11.9612 50.8976 11.9612C50.9987 11.9612 51.0997 11.9167 51.1671 11.8278C51.2345 11.7388 51.3131 11.5943 51.3917 11.3831L52.9973 7.159C53.0759 6.9478 53.1208 6.78106 53.1208 6.6699C53.1208 6.55873 53.0871 6.46981 53.0085 6.40311C52.9299 6.33641 52.784 6.2586 52.5819 6.16967L52.6492 6.00293C52.885 6.10297 53.2443 6.24748 53.7384 6.43646C54.1987 6.61431 54.5693 6.73659 54.8388 6.8144L54.7714 6.98115C54.5693 6.91445 54.4121 6.8811 54.2998 6.89222Z" fill="#263238"/>
<path d="M64.2928 12.7723C64.1805 12.7501 64.0683 12.7834 63.9672 12.8501C63.8661 12.9168 63.7426 13.0502 63.6079 13.2392L60.3517 17.6078L60.1832 17.4855L60.6211 10.4602L57.7355 14.3286C57.6007 14.5176 57.5109 14.6732 57.466 14.7955C57.4211 14.9177 57.4435 15.0289 57.4997 15.1401C57.5558 15.2512 57.6905 15.3735 57.8814 15.5291L57.7691 15.6736C57.6007 15.5291 57.3537 15.3401 57.0281 15.0956C56.7361 14.8844 56.5003 14.7176 56.3207 14.6176L56.433 14.4731C56.6126 14.5954 56.7586 14.6621 56.8709 14.6732C56.9832 14.6954 57.0954 14.6621 57.1965 14.5954C57.2975 14.5176 57.4211 14.3953 57.5558 14.2063L60.2057 10.6492C60.3404 10.4602 60.4303 10.3157 60.4639 10.2156C60.4976 10.1156 60.4864 10.0155 60.4303 9.92661C60.3741 9.83768 60.2618 9.72652 60.0822 9.58201L60.1945 9.4375C60.3404 9.57089 60.565 9.74875 60.8682 9.95996C61.0927 10.1267 61.2836 10.2601 61.4633 10.3601L61.104 16.2517L63.4395 13.1169C63.5742 12.928 63.6753 12.7723 63.7089 12.6501C63.7426 12.5278 63.7314 12.4166 63.6753 12.3055C63.6191 12.1943 63.4844 12.0609 63.2935 11.9164L63.4058 11.7719C63.5742 11.9164 63.8212 12.1054 64.1469 12.3499C64.4388 12.5611 64.6746 12.7279 64.8542 12.8279L64.742 12.9724C64.5511 12.8613 64.4051 12.7834 64.2928 12.7723Z" fill="#263238"/>
<path d="M68.0544 17.7854C68.3463 17.5742 68.6495 17.3408 68.9751 17.0518C69.2558 17.4742 69.7499 18.1745 70.4572 19.1638C71.1646 20.142 71.6699 20.8312 71.9731 21.2314C71.5913 21.4537 71.2657 21.6538 70.9737 21.8539C70.7267 22.0318 70.5246 22.1874 70.3786 22.3097L70.2551 22.1429C70.6144 21.8317 70.8615 21.576 71.0074 21.387C71.1534 21.1981 71.2095 20.998 71.1983 20.7868C71.1871 20.5756 71.0523 20.3199 70.839 20.0086L70.5471 19.6085L66.2915 22.6098C66.0894 22.7543 65.9434 22.8877 65.8761 22.9878C65.8087 23.0878 65.7862 23.2101 65.8312 23.3435C65.8648 23.4657 65.9659 23.6436 66.1119 23.8659L65.9659 23.9771C65.7975 23.7103 65.5392 23.3323 65.2024 22.8766C64.8431 22.3764 64.5736 22.0207 64.3939 21.7983L64.5399 21.6872C64.7083 21.8984 64.8431 22.0429 64.9553 22.1207C65.0676 22.1985 65.1799 22.2207 65.3034 22.1874C65.4269 22.154 65.5954 22.0651 65.7975 21.9206L70.053 18.9193L69.7611 18.5191C69.5365 18.2078 69.3344 18.0189 69.1435 17.9299C68.9526 17.841 68.7393 17.8299 68.5147 17.9077C68.2902 17.9855 67.9645 18.13 67.5491 18.3635L67.4256 18.1967C67.594 18.1078 67.7961 17.9744 68.0544 17.7854Z" fill="#263238"/>
<path d="M70.2099 33.2149L70.0303 33.2705C69.9629 33.0259 69.8731 32.7147 69.7383 32.3367C69.5699 31.8476 69.4352 31.4808 69.3341 31.2362L69.5138 31.1807C69.5924 31.3919 69.6822 31.5475 69.7496 31.6253C69.8282 31.7031 69.9292 31.7253 70.0415 31.6809C70.1426 31.6475 70.2661 31.5697 70.412 31.4474L71.6584 30.4359L70.951 28.3572L69.9068 28.3127C69.5699 28.2905 69.3117 28.3127 69.132 28.3794C68.9524 28.4461 68.8401 28.5461 68.7952 28.6906C68.7615 28.8352 68.7839 29.0464 68.8625 29.302L68.6829 29.3576C68.5931 29.0241 68.4808 28.6906 68.3685 28.3572C68.2787 28.1015 68.2001 27.8903 68.1215 27.7236L68.3011 27.668C68.4583 27.9348 68.7952 28.0793 69.2892 28.0904L75.2627 28.3572L75.3076 28.4906L70.5468 32.4145C70.2549 32.6924 70.1426 32.9481 70.2099 33.2149ZM74.1062 28.4906L71.1643 28.3683L71.8268 30.3247L74.1062 28.4906Z" fill="#263238"/>
<path d="M71.0298 41.7191C71.1421 41.6747 71.1982 41.6191 71.1982 41.5413C71.1982 41.4968 71.187 41.4635 71.1645 41.4301C71.1421 41.3968 71.0972 41.3301 71.0298 41.2411C70.8614 41.0299 70.7378 40.8076 70.648 40.5853C70.5582 40.363 70.5133 40.1073 70.5133 39.8294C70.502 39.2069 70.6256 38.6733 70.8726 38.2176C71.1308 37.7618 71.4901 37.4172 71.9842 37.1726C72.467 36.9281 73.0509 36.8058 73.7358 36.7947C74.4432 36.7836 75.0608 36.8947 75.5885 37.1393C76.1162 37.3839 76.5317 37.7173 76.8236 38.162C77.1156 38.6066 77.2728 39.1069 77.2728 39.6627C77.2728 39.9072 77.2503 40.1295 77.2054 40.3185C77.1605 40.5075 77.0931 40.6742 77.0145 40.8187C76.9359 40.9632 76.8349 41.13 76.7001 41.3078C76.644 41.3856 76.6103 41.4523 76.6103 41.4968C76.6103 41.608 76.8012 41.6858 77.1717 41.7191V41.9303C76.7787 41.9081 76.0713 41.9081 75.0608 41.9303V41.7191C75.3864 41.6635 75.6559 41.5969 75.8692 41.5302C76.0825 41.4635 76.2622 41.3634 76.4194 41.2411C76.6327 41.0633 76.8124 40.8298 76.9359 40.5408C77.0594 40.2518 77.1156 39.9628 77.1156 39.6515C77.1043 39.2514 76.9696 38.9068 76.7001 38.6066C76.4306 38.3065 76.0489 38.0842 75.566 37.9174C75.072 37.7618 74.5106 37.684 73.8593 37.6951C73.1183 37.7062 72.5232 37.7952 72.0516 37.9619C71.58 38.1286 71.2431 38.3732 71.0186 38.6956C70.794 39.0179 70.6929 39.4292 70.7042 39.9294C70.7154 40.2963 70.8164 40.6075 71.0073 40.8743C71.0859 40.9855 71.1533 41.0522 71.2319 41.0855C71.2993 41.1189 71.4003 41.13 71.5238 41.13L72.4109 41.1189C72.6691 41.1189 72.8488 41.0855 72.9723 41.041C73.0846 40.9966 73.1744 40.9077 73.2081 40.7743C73.253 40.652 73.2755 40.4519 73.2755 40.1851H73.4551C73.4439 40.4852 73.4327 40.9077 73.4439 41.4746C73.4551 41.897 73.4663 42.2194 73.4888 42.4194H73.3091C73.2979 42.2749 73.2642 42.1749 73.2305 42.1193C73.1969 42.0637 73.1183 42.0193 73.0172 41.997C72.9161 41.9748 72.7477 41.9637 72.5119 41.9748L70.6929 42.0082V41.8303C70.794 41.7858 70.9175 41.7636 71.0298 41.7191Z" fill="#263238"/>
<path d="M69.694 51.1787C69.3684 51.0787 68.9866 50.9786 68.5487 50.8897C68.6947 50.5006 68.908 49.8448 69.2112 48.911C69.5705 47.7994 69.8287 46.9546 69.9859 46.3877L70.1656 46.4433C70.1094 46.6545 70.087 46.8101 70.087 46.9213C70.0982 47.0324 70.1431 47.1102 70.233 47.1769C70.3228 47.2436 70.48 47.3103 70.6933 47.377L75.0387 48.7332C75.2633 48.7999 75.4205 48.8332 75.5328 48.8332C75.645 48.8332 75.7349 48.7888 75.8022 48.6998C75.8696 48.6109 75.937 48.4664 76.0156 48.2663L76.1952 48.3219C75.9931 48.8888 75.7236 49.7225 75.3643 50.8341C75.0948 51.679 74.904 52.2903 74.8141 52.6572C74.4436 52.5015 74.1067 52.3682 73.7924 52.2792C73.5678 52.2125 73.3769 52.1569 73.2422 52.1347L73.3095 51.9346C73.7025 52.0124 74.0057 52.0458 74.2078 52.0458C74.4099 52.0458 74.5783 51.9791 74.7131 51.8457C74.8478 51.7234 74.9601 51.5011 75.0612 51.201L75.2857 50.4784C75.3531 50.2672 75.3868 50.1116 75.3756 50.0115C75.3643 49.9115 75.3306 49.8226 75.2408 49.7559C75.151 49.6892 75.005 49.6225 74.7804 49.5558L72.7144 48.911L72.5348 49.4891C72.445 49.7781 72.4674 50.0004 72.6134 50.156C72.7593 50.3117 72.9165 50.4228 73.0962 50.5006C73.2758 50.5785 73.3881 50.634 73.433 50.6563L73.3657 50.8564C73.085 50.7452 72.8155 50.6452 72.546 50.5673L72.1306 50.4451C71.8386 50.3561 71.4119 50.2339 70.873 50.1116L70.9403 49.9115C70.9853 49.9226 71.1312 49.9448 71.3783 50.0004C71.6253 50.0449 71.8386 50.0227 72.007 49.9337C72.1755 49.8448 72.2878 49.6781 72.3664 49.4446L72.546 48.8666L70.4351 48.2107C70.2105 48.144 70.0533 48.1107 69.941 48.1107C69.8287 48.1107 69.7389 48.1552 69.6828 48.2441C69.6154 48.333 69.548 48.4775 69.4807 48.6887L69.2785 49.3223C69.1663 49.6892 69.1214 49.9782 69.1663 50.1894C69.2 50.4117 69.3122 50.5896 69.5031 50.7452C69.694 50.8897 69.9859 51.0565 70.3789 51.2343L70.3116 51.4344C70.1768 51.3344 69.9635 51.2677 69.694 51.1787Z" fill="#263238"/>
<path d="M66.4935 64.8183C66.5384 64.7183 66.5272 64.6182 66.4822 64.5182C66.4373 64.4182 66.3251 64.2959 66.1566 64.1291L62.8555 61.0055C62.6871 60.8499 62.5523 60.7498 62.4513 60.7054C62.3502 60.6609 62.2492 60.6609 62.1481 60.7054C62.047 60.7498 61.9235 60.8499 61.7663 61.0055L61.6316 60.8832C61.8449 60.6943 62.1144 60.4164 62.4625 60.0718C62.8218 59.6938 63.0913 59.4048 63.2597 59.2158L63.3944 59.3381C63.2485 59.5048 63.1587 59.6382 63.1137 59.7272C63.0688 59.8272 63.08 59.9272 63.125 60.0273C63.1699 60.1273 63.2822 60.2496 63.4506 60.4164L66.7517 63.54C66.9202 63.6956 67.0549 63.7956 67.1559 63.8401C67.257 63.8846 67.3581 63.8846 67.4591 63.8401C67.5602 63.7956 67.6837 63.6956 67.8409 63.54L67.9756 63.6623C67.7847 63.829 67.504 64.1069 67.1447 64.4848C66.7966 64.8406 66.5384 65.1296 66.3587 65.3408L66.224 65.2185C66.3587 65.0518 66.4486 64.9184 66.4935 64.8183Z" fill="#263238"/>
<path d="M57.1403 71.5985C57.2077 71.4985 57.2189 71.3985 57.1965 71.2762C57.174 71.1539 57.0954 70.9983 56.9719 70.7871L54.1873 66.1072L54.3669 65.996L60.7222 69.1419L58.2632 65.0067C58.1396 64.8066 58.0386 64.6621 57.9375 64.5843C57.8365 64.5065 57.7242 64.4731 57.6007 64.4842C57.4772 64.4954 57.3087 64.5621 57.0954 64.6732L56.9943 64.5176C57.1965 64.4287 57.4659 64.273 57.814 64.0729C58.1284 63.884 58.3642 63.7395 58.5326 63.6172L58.6225 63.7728C58.4428 63.884 58.3193 63.9951 58.2632 64.0952C58.1958 64.1952 58.1846 64.2953 58.207 64.4175C58.2295 64.5398 58.3081 64.6954 58.4316 64.9067L60.6997 68.7195C60.812 68.9196 60.9131 69.053 61.0029 69.1197C61.0927 69.1863 61.1825 69.2197 61.2948 69.1975C61.3959 69.1752 61.5531 69.1197 61.744 69.0196L61.8338 69.1752C61.6541 69.2642 61.4071 69.3976 61.0815 69.5865C60.8457 69.7199 60.6436 69.8533 60.4751 69.9645L55.1417 67.33L57.1403 70.687C57.2638 70.8871 57.3649 71.0316 57.4659 71.1094C57.5558 71.1872 57.6681 71.2206 57.8028 71.2095C57.9375 71.1984 58.106 71.1317 58.3193 71.0205L58.4091 71.1761C58.207 71.2651 57.9375 71.4207 57.5895 71.6208C57.2751 71.8097 57.0393 71.9543 56.8708 72.0765L56.781 71.9209C56.9494 71.7986 57.0729 71.6875 57.1403 71.5985Z" fill="#263238"/>
<path d="M50.9649 73.0545C51.0435 73.3991 51.1445 73.7771 51.2793 74.1773C50.774 74.2662 49.9319 74.4441 48.7416 74.6886C47.5514 74.9443 46.7205 75.1332 46.2265 75.2555C46.1703 74.822 46.1142 74.4441 46.0356 74.0995C45.9682 73.7993 45.9121 73.5548 45.8447 73.3769L46.0468 73.3324C46.1928 73.7882 46.3275 74.1106 46.4511 74.3218C46.5746 74.533 46.7318 74.6664 46.9339 74.7331C47.136 74.7998 47.4279 74.7886 47.7985 74.7108L48.2813 74.6108L47.1809 69.553C47.1248 69.3084 47.0686 69.1306 46.99 69.0305C46.9114 68.9305 46.8216 68.8638 46.6869 68.8527C46.5521 68.8304 46.35 68.8527 46.0805 68.8971L46.0468 68.7193C46.3612 68.6748 46.8104 68.5859 47.3718 68.4636C47.9669 68.3302 48.416 68.2302 48.6967 68.1523L48.7304 68.3302C48.4609 68.3969 48.2813 68.4636 48.169 68.5303C48.0567 68.597 47.9893 68.697 47.9669 68.8193C47.9444 68.9416 47.9557 69.1306 48.0118 69.3751L49.1122 74.4329L49.595 74.3329C49.9655 74.2551 50.235 74.1439 50.3922 73.9994C50.5494 73.8549 50.6392 73.6659 50.6617 73.4325C50.6842 73.199 50.6729 72.8433 50.6168 72.3765L50.8189 72.332C50.8526 72.5098 50.8975 72.7544 50.9649 73.0545Z" fill="#263238"/>
<path d="M36.0644 69.9309C36.0981 69.5863 36.1093 69.1972 36.1093 68.7637C36.5248 68.8193 37.2209 68.8859 38.209 68.9749C39.3768 69.0749 40.2638 69.1527 40.8701 69.1861L40.8589 69.3639C40.6343 69.3528 40.4771 69.3639 40.3761 69.3973C40.275 69.4306 40.1964 69.4862 40.1515 69.5863C40.1066 69.6863 40.0729 69.853 40.0505 70.0754L39.6462 74.5774C39.6238 74.7997 39.635 74.9665 39.6575 75.0776C39.6799 75.1888 39.7473 75.2666 39.8484 75.311C39.9494 75.3555 40.1066 75.4 40.3199 75.4222L40.3087 75.6001C39.7136 75.5334 38.8266 75.4444 37.6588 75.3444C36.7606 75.2666 36.1205 75.2221 35.7388 75.1999C35.8174 74.8108 35.8735 74.4551 35.896 74.1327C35.9184 73.8993 35.9297 73.7103 35.9184 73.5658L36.1318 73.5881C36.143 73.9882 36.1654 74.2773 36.2216 74.4773C36.2665 74.6774 36.3676 74.8219 36.5248 74.922C36.6707 75.022 36.9178 75.0887 37.2321 75.111L37.9957 75.1777C38.2202 75.1999 38.3774 75.1888 38.4785 75.1665C38.5795 75.1443 38.6581 75.0776 38.7031 74.9776C38.748 74.8775 38.7817 74.7108 38.8041 74.4885L38.995 72.3542L38.3887 72.2986C38.0855 72.2764 37.8722 72.343 37.7486 72.5209C37.6364 72.6988 37.5465 72.8766 37.5129 73.0656C37.4679 73.2546 37.4455 73.3768 37.4343 73.4324L37.2209 73.4102C37.2658 73.1101 37.2995 72.8322 37.3332 72.5543L37.3669 72.1207C37.3893 71.8095 37.4118 71.3871 37.4343 70.8313L37.6476 70.8535C37.6476 70.898 37.6588 71.0425 37.6588 71.2981C37.67 71.5538 37.7262 71.7539 37.8609 71.8873C37.9844 72.0318 38.1753 72.1096 38.4224 72.1318L39.0287 72.1874L39.2196 70.0087C39.242 69.7864 39.2308 69.6196 39.2083 69.5084C39.1859 69.4084 39.1185 69.3306 39.0175 69.2861C38.9164 69.2417 38.7592 69.2083 38.5459 69.1861L37.8722 69.1305C37.4904 69.0972 37.1985 69.1194 36.9851 69.2083C36.783 69.2861 36.6258 69.4418 36.5135 69.653C36.4012 69.8642 36.3114 70.1865 36.2216 70.6089L36.0083 70.5867C36.0083 70.42 36.0307 70.1976 36.0644 69.9309Z" fill="#263238"/>
<path d="M27.2281 65.8076C27.3965 65.7743 27.5874 65.8076 27.7895 65.8965C28.0253 65.9966 28.1825 66.1411 28.2723 66.3301C28.3621 66.5302 28.3733 66.8081 28.3172 67.1749L28.1488 68.0864C28.0926 68.4088 28.059 68.6533 28.0477 68.8423C28.0365 69.0202 28.0814 69.1869 28.16 69.3314C28.2386 69.4759 28.3846 69.5871 28.5979 69.676L29.4064 70.0095L30.226 68.0753C30.3159 67.8641 30.3608 67.7085 30.372 67.5973C30.3832 67.4861 30.3383 67.3972 30.2597 67.3194C30.1811 67.2416 30.0464 67.1638 29.8443 67.0748L29.9116 66.9081C30.1699 67.0304 30.518 67.186 30.9783 67.375C31.4611 67.5751 31.8317 67.7196 32.0787 67.7974L32.0113 67.9641C31.798 67.8863 31.6408 67.853 31.5397 67.8418C31.4275 67.8418 31.3376 67.8752 31.2703 67.9641C31.1917 68.0419 31.1131 68.1864 31.0232 68.3977L29.2604 72.5662C29.1706 72.7774 29.1256 72.933 29.1144 73.0442C29.1032 73.1553 29.1481 73.2443 29.2267 73.3221C29.3053 73.3999 29.44 73.4777 29.6422 73.5778L29.5748 73.7445C29.339 73.6333 29.0021 73.4777 28.553 73.2887C28.3284 73.1998 28.0926 73.0998 27.8232 72.9886C27.5537 72.8774 27.374 72.8107 27.273 72.7663C26.8351 72.5773 26.487 72.3661 26.2287 72.1104C25.9705 71.8548 25.8245 71.588 25.7571 71.299C25.6898 71.0099 25.7235 70.732 25.847 70.4541C25.9368 70.2318 26.0828 70.0317 26.2849 69.8539C26.487 69.676 26.7452 69.5426 27.0596 69.4759C27.374 69.4092 27.7558 69.4203 28.1712 69.5204L28.0702 69.4648C27.8344 69.3203 27.6547 69.1758 27.5424 69.0202C27.4302 68.8756 27.3516 68.7089 27.3291 68.531C27.2954 68.3532 27.3067 68.1309 27.3516 67.8641L27.5088 66.9192C27.5424 66.7302 27.5649 66.5857 27.5649 66.4746C27.5649 66.3634 27.5537 66.2745 27.52 66.2078C27.4863 66.1411 27.4302 66.0855 27.3516 66.0633C27.2617 66.0188 27.1719 66.0188 27.0933 66.041C27.0147 66.0633 26.9024 66.1189 26.7565 66.1967L26.6666 66.0522C26.8687 65.9299 27.0596 65.841 27.2281 65.8076ZM27.7895 69.7649C27.52 69.7983 27.3067 69.8983 27.1382 70.0651C26.9698 70.2318 26.8238 70.4541 26.7003 70.7431C26.5094 71.1989 26.4645 71.5991 26.588 71.9215C26.7115 72.2438 27.0147 72.5106 27.52 72.7218C27.6996 72.7996 27.8344 72.833 27.9467 72.8219C28.0477 72.8219 28.1376 72.7774 28.2161 72.6885C28.2947 72.5995 28.3733 72.455 28.4519 72.2549L29.3278 70.1873L28.7551 69.9539C28.3846 69.7983 28.059 69.7316 27.7895 69.7649Z" fill="#263238"/>
<path d="M18.4696 67.3194C18.5707 67.3527 18.6717 67.3305 18.7616 67.2749C18.8514 67.2193 18.9749 67.0971 19.1209 66.9192L21.9392 63.362C22.0852 63.1842 22.175 63.0397 22.2087 62.9396C22.2424 62.8396 22.2311 62.7395 22.175 62.6506C22.1188 62.5617 22.0066 62.4394 21.8381 62.2949L21.9504 62.1504C22.1638 62.3394 22.4557 62.5839 22.8487 62.8841C23.2641 63.2064 23.5785 63.4399 23.7919 63.5844L23.6796 63.7289C23.4999 63.5955 23.354 63.5177 23.2529 63.4954C23.1519 63.4621 23.0508 63.4732 22.961 63.5399C22.8711 63.5955 22.7476 63.7178 22.6017 63.8956L19.7833 67.4528C19.6374 67.6306 19.5476 67.7751 19.5139 67.8752C19.4802 67.9752 19.4914 68.0753 19.5475 68.1642C19.6037 68.2531 19.716 68.3754 19.8844 68.5199L19.7721 68.6644C19.5812 68.4977 19.2781 68.2531 18.8626 67.9196C18.4696 67.6195 18.1552 67.3861 17.9307 67.2304L18.0429 67.0859C18.2338 67.2082 18.3686 67.286 18.4696 67.3194Z" fill="#263238"/>
<path d="M11.2163 59.4043C11.1714 58.9041 11.2837 58.4038 11.5419 57.9259C11.8114 57.4367 12.2156 57.0032 12.7771 56.5919C13.3273 56.2029 13.8774 55.9472 14.4501 55.8471C15.0227 55.7471 15.5505 55.7804 16.0445 55.9694C16.5386 56.1584 16.954 56.4808 17.2796 56.9365C17.6277 57.4034 17.8186 57.8925 17.8635 58.3927C17.9084 58.893 17.7961 59.3932 17.5379 59.8712C17.2684 60.3603 16.8642 60.7938 16.3028 61.2051C15.7526 61.5942 15.2024 61.8498 14.6297 61.9499C14.0683 62.0499 13.5294 62.0166 13.0353 61.8276C12.5413 61.6386 12.1258 61.3163 11.8002 60.8716C11.4521 60.3936 11.2612 59.9045 11.2163 59.4043ZM12.9006 61.383C13.2936 61.4608 13.7427 61.4274 14.2368 61.2718C14.7308 61.1162 15.2249 60.8605 15.7414 60.4826C16.2579 60.1157 16.6621 59.7155 16.9428 59.2931C17.2347 58.8707 17.3919 58.4483 17.4144 58.0481C17.4481 57.648 17.347 57.2922 17.1337 56.9921C16.8979 56.6809 16.5947 56.4808 16.1905 56.403C15.7975 56.3251 15.3484 56.3585 14.8543 56.5141C14.3603 56.6697 13.8662 56.9254 13.3497 57.2922C12.8332 57.6591 12.429 58.0592 12.1483 58.4928C11.8563 58.9152 11.6991 59.3265 11.6655 59.7378C11.6318 60.138 11.7328 60.4937 11.9462 60.7938C12.182 61.1051 12.4964 61.3051 12.9006 61.383Z" fill="#263238"/>
<path d="M12.0807 46.0207C12.2155 46.1207 12.3165 46.2875 12.3839 46.5098C12.4625 46.7432 12.4513 46.9656 12.3615 47.1545C12.2716 47.3546 12.0583 47.5436 11.7327 47.7326L10.913 48.1883C10.6323 48.3551 10.419 48.4885 10.273 48.5996C10.127 48.7108 10.026 48.8442 9.96982 48.9998C9.91367 49.1554 9.91367 49.3333 9.98104 49.5556L10.2393 50.3893L12.2604 49.7668C12.485 49.7001 12.6309 49.6334 12.7208 49.5667C12.8106 49.5 12.8555 49.4111 12.8667 49.3111C12.878 49.211 12.8443 49.0443 12.7881 48.8331L12.9678 48.7775C13.0352 49.0443 13.1362 49.4222 13.2934 49.8891C13.4506 50.3893 13.5741 50.7561 13.6639 50.9896L13.4843 51.0452C13.4057 50.834 13.3383 50.6894 13.271 50.6116C13.2036 50.5338 13.1138 50.4782 13.0015 50.4782C12.8892 50.4782 12.7208 50.5005 12.5074 50.5783L8.15082 51.9122C7.92625 51.9789 7.78028 52.0456 7.69046 52.1123C7.60063 52.179 7.55572 52.2679 7.54449 52.368C7.53326 52.4791 7.56694 52.6348 7.62309 52.846L7.44343 52.9016C7.38729 52.657 7.28623 52.3013 7.14027 51.8344C7.0729 51.6121 6.98307 51.3564 6.89324 51.0896C6.80341 50.8228 6.73604 50.6339 6.70236 50.5338C6.55639 50.0781 6.51148 49.6779 6.54516 49.3222C6.57885 48.9665 6.69113 48.6774 6.87078 48.444C7.05044 48.2106 7.28623 48.0549 7.57817 47.966C7.80274 47.8993 8.04976 47.8771 8.31924 47.9104C8.58873 47.9438 8.84698 48.0549 9.11646 48.255C9.38594 48.4551 9.61051 48.7441 9.80139 49.1332L9.79016 49.022C9.75648 48.7441 9.74525 48.5218 9.79016 48.3328C9.83507 48.1439 9.91367 47.9882 10.026 47.8548C10.1495 47.7215 10.3291 47.5769 10.5649 47.4436L11.3958 46.9544C11.5642 46.8655 11.699 46.7766 11.7776 46.7099C11.8562 46.6432 11.9236 46.5765 11.9572 46.5098C11.9909 46.4431 11.9909 46.3653 11.9685 46.2875C11.9348 46.1874 11.8899 46.1207 11.8225 46.0763C11.7551 46.0318 11.6428 45.9762 11.4856 45.9206L11.5418 45.7539C11.7664 45.8317 11.9572 45.9206 12.0807 46.0207ZM9.39717 48.9998C9.20629 48.8219 8.98172 48.7219 8.74592 48.6997C8.51013 48.6774 8.24065 48.7108 7.93748 48.8108C7.45466 48.9553 7.12904 49.1888 6.94938 49.4889C6.76973 49.789 6.76973 50.2003 6.92693 50.7006C6.98307 50.8784 7.05044 51.0118 7.11781 51.0896C7.18518 51.1674 7.28623 51.2119 7.39852 51.2119C7.5108 51.2119 7.67923 51.1786 7.88134 51.123L10.0372 50.456L9.85753 49.8669C9.74525 49.4667 9.58805 49.1777 9.39717 48.9998Z" fill="#263238"/>
<path d="M11.2163 35.4711C11.6429 35.2821 11.9012 34.9264 12.0135 34.3928C12.0472 34.1927 12.0472 33.9926 11.991 33.8037C11.9349 33.6147 11.8338 33.448 11.6766 33.3034C11.5194 33.1589 11.3061 33.0589 11.0254 33.0144C10.7896 32.97 10.5762 32.9922 10.3741 33.07C10.172 33.1478 9.9699 33.2701 9.77902 33.4368C9.58814 33.6036 9.36357 33.8259 9.11655 34.1038C8.83584 34.4151 8.58881 34.6707 8.37548 34.8486C8.16214 35.0376 7.92634 35.1709 7.66809 35.271C7.40984 35.371 7.1179 35.3822 6.79228 35.3266C6.45542 35.2599 6.17471 35.1376 5.9726 34.9375C5.77049 34.7374 5.62452 34.504 5.55715 34.2261C5.48978 33.9482 5.48978 33.6592 5.54593 33.3479C5.57961 33.1589 5.62452 33.0144 5.68067 32.881C5.73681 32.7476 5.79295 32.6476 5.86032 32.5698C5.92769 32.492 5.99506 32.403 6.08489 32.3141C6.19717 32.1918 6.25331 32.1029 6.27577 32.0362C6.287 31.9806 6.26454 31.9362 6.2084 31.8917C6.15226 31.8472 6.0512 31.8139 5.91646 31.7694L5.95015 31.5693C6.29823 31.6583 6.90456 31.7917 7.7916 31.9584L7.75792 32.1585C7.44352 32.1251 7.15158 32.1363 6.85965 32.203C6.57894 32.2585 6.33191 32.3808 6.1298 32.5698C5.92769 32.7476 5.79295 33.0033 5.73681 33.3146C5.69189 33.5258 5.70312 33.7147 5.75926 33.9037C5.81541 34.0927 5.91646 34.2372 6.0512 34.3595C6.19717 34.4818 6.3656 34.5596 6.56771 34.604C6.89333 34.6596 7.17404 34.6151 7.40984 34.4595C7.64563 34.3039 7.8702 34.1038 8.08354 33.8704C8.29688 33.6369 8.43162 33.4813 8.51022 33.4035C8.82461 33.07 9.08286 32.8143 9.2962 32.6254C9.50954 32.4364 9.74534 32.303 10.0036 32.2141C10.2618 32.1251 10.5426 32.114 10.8457 32.1696C11.2163 32.2363 11.5194 32.3808 11.744 32.592C11.9686 32.8143 12.1145 33.07 12.1931 33.3813C12.2717 33.6925 12.2717 34.026 12.2044 34.3817C12.1482 34.6707 12.0808 34.893 11.9798 35.0709C11.89 35.2488 11.7664 35.4044 11.6317 35.5489C11.5194 35.6712 11.4633 35.7601 11.4408 35.8268C11.4296 35.8824 11.452 35.9268 11.5082 35.9713C11.5643 36.0158 11.6654 36.0602 11.8001 36.0936L11.7664 36.2937C11.4408 36.2047 10.7222 36.0602 9.6106 35.8601L9.64428 35.6601C10.2731 35.7156 10.7896 35.6601 11.2163 35.4711Z" fill="#263238"/>
<path d="M8.99309 26.1006C8.67869 25.9339 8.31938 25.7783 7.91516 25.6227C8.16219 25.1891 8.57764 24.4332 9.13905 23.355C9.70047 22.2878 10.0935 21.5319 10.3068 21.0762C10.6773 21.3096 11.0142 21.5097 11.3174 21.6653C11.5868 21.8098 11.8226 21.9099 12.0023 21.9877L11.9012 22.1767C11.4521 21.9988 11.1152 21.8876 10.8795 21.8543C10.6437 21.8098 10.4303 21.8543 10.2507 21.9655C10.071 22.0766 9.89135 22.2989 9.72293 22.6324L9.49836 23.0771L14.1357 25.467C14.3602 25.5893 14.5399 25.6449 14.6634 25.656C14.7869 25.6671 14.8992 25.6338 15.0003 25.5448C15.1013 25.4559 15.2136 25.2892 15.3483 25.0557L15.5168 25.1447C15.3483 25.4226 15.135 25.8116 14.8655 26.323C14.5848 26.8565 14.3827 27.2678 14.2592 27.5235L14.0908 27.4346C14.2031 27.19 14.2816 27.001 14.2929 26.8788C14.3153 26.7454 14.2816 26.6342 14.1918 26.5342C14.102 26.4341 13.956 26.3341 13.7315 26.2118L9.09414 23.8107L8.85834 24.2443C8.67869 24.5777 8.60009 24.8445 8.61132 25.0557C8.62255 25.2669 8.71238 25.4559 8.8808 25.6227C9.04923 25.7894 9.32994 26.0117 9.73416 26.2674L9.6331 26.4564C9.48713 26.3674 9.26257 26.2452 8.99309 26.1006Z" fill="#263238"/>
<path d="M16.92 13.3283C17.1109 13.1394 17.2681 12.9615 17.3804 12.8281L17.5151 12.9615C17.4478 13.0616 17.4141 13.2061 17.4253 13.3728C17.4365 13.5396 17.4814 13.773 17.5713 14.0509L18.5931 17.0634L19.7833 18.2305C19.9517 18.3862 20.0752 18.4973 20.1763 18.5418C20.2773 18.5863 20.3784 18.5863 20.4794 18.5418C20.5805 18.4973 20.704 18.3973 20.8724 18.2528L21.0072 18.3862C20.7938 18.5751 20.5131 18.8419 20.165 19.1865C19.7945 19.5534 19.525 19.8424 19.3566 20.0314L19.2218 19.898C19.3678 19.7312 19.4689 19.6089 19.5138 19.5089C19.5587 19.4088 19.5587 19.3088 19.5026 19.2088C19.4576 19.1087 19.3454 18.9753 19.1882 18.8197L18.2001 17.8526L14.4498 16.7632C14.2252 16.6965 14.0568 16.6743 13.9445 16.6854C13.8322 16.6965 13.7536 16.7299 13.6975 16.7855L13.5627 16.6521C13.7424 16.4964 13.9445 16.3186 14.1466 16.1074C14.5621 15.685 14.8652 15.3848 15.0337 15.1847L15.1684 15.3181C14.8652 15.6183 14.7979 15.8517 14.9663 16.0184C15.0337 16.0851 15.1235 16.1296 15.2582 16.1741L18.4134 17.1412L17.5825 14.6845C17.459 14.3288 17.3355 14.0842 17.2007 13.962C17.0772 13.8397 16.9425 13.8063 16.7965 13.8508C16.6505 13.8953 16.4821 14.0064 16.28 14.1954L16.1453 14.062C16.4148 13.8175 16.6618 13.5729 16.92 13.3283Z" fill="#263238"/>
<path d="M23.7135 8.84894C23.6462 8.92675 23.6125 9.0268 23.6349 9.13796C23.6574 9.24912 23.7135 9.40475 23.8258 9.60484L25.9929 13.5844C26.1052 13.7845 26.195 13.9179 26.2848 13.9957C26.3634 14.0735 26.4645 14.0957 26.5655 14.0846C26.6666 14.0735 26.8238 14.0068 27.0147 13.9068L27.6098 13.5844C27.9466 13.4065 28.1824 13.2176 28.3059 13.0286C28.4295 12.8396 28.4744 12.6284 28.4407 12.3727C28.407 12.1171 28.3059 11.7947 28.1263 11.3723L28.3172 11.2722C28.3958 11.4501 28.5081 11.6724 28.654 11.9392C28.8225 12.2393 29.0246 12.5728 29.2716 12.9397C28.901 13.1175 28.2723 13.4399 27.4077 13.9068C26.3747 14.4626 25.5887 14.885 25.0722 15.1851L24.9823 15.0295C25.1732 14.9183 25.308 14.8183 25.3753 14.7405C25.4427 14.6627 25.4764 14.5626 25.4539 14.4514C25.4315 14.3403 25.3753 14.1847 25.2631 13.9846L23.0735 10.005C22.9612 9.80492 22.8714 9.67153 22.7816 9.59372C22.703 9.51591 22.6019 9.49367 22.5009 9.50479C22.3886 9.51591 22.2426 9.57149 22.0405 9.67153L21.9619 9.50479C22.1977 9.40475 22.5458 9.22689 23.0062 8.97122C23.4441 8.73778 23.7809 8.54881 24.0167 8.4043L24.1065 8.55992C23.9157 8.67108 23.7921 8.77113 23.7135 8.84894Z" fill="#263238"/>
<path d="M37.3898 9.55984C37.4572 9.89332 37.5582 10.2713 37.6818 10.6937C37.2663 10.7604 36.5814 10.8826 35.6157 11.0716C34.4592 11.2939 33.5946 11.4718 32.9995 11.6052L32.9658 11.4273C33.1792 11.3718 33.3364 11.3273 33.4262 11.2606C33.516 11.205 33.5722 11.1161 33.5834 11.016C33.5946 10.9049 33.5834 10.7381 33.5385 10.5158L32.6627 6.0805C32.6178 5.85818 32.5728 5.70255 32.5055 5.60251C32.4381 5.50246 32.3707 5.44688 32.2584 5.43577C32.1574 5.41353 31.989 5.42465 31.7756 5.458L31.7419 5.28014C32.337 5.1801 33.2129 5.02447 34.3582 4.80215C35.2452 4.62429 35.874 4.50201 36.2333 4.41309C36.267 4.81327 36.3231 5.16898 36.3793 5.48023C36.4242 5.71367 36.4691 5.89153 36.514 6.02492L36.3119 6.06938C36.1884 5.69144 36.0761 5.41353 35.975 5.23568C35.874 5.05782 35.728 4.94666 35.5596 4.89108C35.3799 4.8355 35.1441 4.8355 34.8185 4.90219L34.0662 5.0467C33.8529 5.09117 33.6957 5.13563 33.6059 5.19121C33.516 5.24679 33.4599 5.32461 33.4374 5.43577C33.4262 5.54693 33.4374 5.71367 33.4823 5.93599L33.8978 8.04805L34.4929 7.92577C34.7961 7.87019 34.9757 7.7368 35.0431 7.53671C35.1105 7.33662 35.1329 7.14764 35.1217 6.95867C35.1105 6.7697 35.0992 6.64742 35.0992 6.59184L35.3013 6.54737C35.335 6.84751 35.3799 7.12541 35.4361 7.3922L35.5259 7.81461C35.582 8.11474 35.6831 8.53715 35.8291 9.07073L35.627 9.11519C35.6157 9.07073 35.5708 8.93733 35.4922 8.69278C35.4136 8.44823 35.3013 8.28149 35.1329 8.18144C34.9645 8.0814 34.7736 8.05916 34.5266 8.10363L33.9315 8.21479L34.3582 10.3602C34.4031 10.5825 34.448 10.7381 34.5041 10.8382C34.5603 10.9271 34.6389 10.9827 34.7511 11.0049C34.8522 11.016 35.0206 11.0049 35.234 10.9605L35.8964 10.8271C36.267 10.7493 36.5477 10.6492 36.7273 10.5158C36.907 10.3824 37.0081 10.1935 37.053 9.96001C37.0979 9.72658 37.0979 9.39309 37.0642 8.95957L37.2663 8.9151C37.3 9.08184 37.3337 9.29305 37.3898 9.55984Z" fill="#263238"/>
<path d="M29.8218 52.0125C29.3052 51.3233 28.8561 50.5674 28.4631 49.7337C28.0701 48.9 27.7557 48.0552 27.5199 47.1881C27.0034 43.3753 26.9922 39.6737 27.475 36.0832C27.9578 32.4927 28.7438 28.9578 29.8218 25.4673C30.0014 25.0782 30.3944 24.8893 31.0007 24.8893C31.6071 24.8893 32.2022 25.0227 32.8085 25.2894C33.4148 25.5562 33.9089 25.9119 34.3019 26.3566C34.6949 26.8012 34.7847 27.2681 34.5714 27.7461C34.2345 28.4575 33.9089 29.4246 33.5833 30.6252C33.2576 31.8368 32.932 33.1708 32.6401 34.627C32.3369 36.0832 32.0787 37.6172 31.8541 39.2068C31.6295 40.7964 31.4611 42.3304 31.36 43.7866C31.259 45.2428 31.2365 46.5656 31.2927 47.7439C31.3488 48.9223 31.5285 49.856 31.8316 50.5341C33.2464 48.6555 34.5377 46.7101 35.7166 44.6981C36.8956 42.6861 37.996 40.6519 39.029 38.5732C40.062 36.5056 41.0501 34.4158 41.9821 32.2926C42.914 30.1805 43.8348 28.0907 44.733 26.0342C45.1822 24.9893 45.6313 23.8888 46.0692 22.7327C46.5071 21.5656 47.0798 20.5762 47.8096 19.7425C48.1128 19.4757 48.3486 19.3868 48.5058 19.4757C48.6742 19.5647 48.7865 19.7314 48.8426 19.9871C48.8988 20.2427 48.9324 20.5095 48.9324 20.7874C48.9324 21.0653 48.9324 21.2877 48.9324 21.4322C48.7191 22.7994 48.5395 24.1556 48.3935 25.5007C48.2475 26.8457 47.9219 28.1352 47.4503 29.3913C46.6643 31.3588 45.8671 33.3041 45.0362 35.2495C44.2053 37.1837 43.3183 39.0956 42.3751 40.9742C41.4319 42.8529 40.3989 44.6759 39.3097 46.4434C38.2093 48.2219 37.0191 49.9116 35.7166 51.5123C34.6949 52.7907 33.6731 53.4687 32.6738 53.5465C31.6295 53.6355 30.6976 53.113 29.8218 52.0125Z" fill="#FF5196" stroke="white" stroke-miterlimit="10"/>
<path d="M48.4161 46.9655C47.8098 46.1318 47.2146 45.2869 46.6308 44.4199C46.0469 43.5528 45.755 42.608 45.755 41.5631C45.755 40.407 46.0918 39.3065 46.7655 38.2727C47.4392 37.25 48.214 36.4163 49.0898 35.7938C49.4491 35.5604 49.8196 35.3603 50.1902 35.2158C50.5607 35.0713 50.9649 35.0824 51.3916 35.2602C51.5713 35.3492 51.7621 35.4159 51.953 35.4603C52.1439 35.5048 52.3236 35.5604 52.4695 35.6159C52.6155 35.6715 52.7839 35.7605 52.9636 35.8827C53.1432 36.005 53.2331 36.1606 53.2331 36.3718C53.2331 37.2055 53.2555 37.8836 53.3004 38.4061C53.3453 38.9285 53.4127 39.3732 53.5025 39.7511C53.5924 40.1291 53.6822 40.4514 53.772 40.7293C53.8618 41.0184 53.9517 41.3185 54.0415 41.6409C54.0976 41.941 54.0864 42.1967 53.9966 42.3968C53.9068 42.608 53.6822 42.6302 53.3229 42.4857C52.6604 42.2523 52.1664 41.7743 51.852 41.0517C51.5376 40.3292 51.3018 39.6844 51.1558 39.0842C51.1221 38.9619 51.0548 38.7618 50.9312 38.4617C50.8077 38.1615 50.7404 37.9503 50.7067 37.8392C50.4709 37.7836 50.1789 37.8614 49.8533 38.0837C49.5277 38.306 49.2245 38.6173 48.9775 38.9952C48.7193 39.3843 48.5508 39.8289 48.4835 40.3403C48.4049 40.8516 48.5059 41.3518 48.7754 41.8632C48.8989 42.041 49.0673 42.2634 49.2919 42.5079C49.5165 42.7636 49.741 43.0193 49.9656 43.286C50.1902 43.5528 50.4147 43.8196 50.6393 44.0642C50.8639 44.3087 51.0548 44.5199 51.2007 44.6644C51.3804 44.8423 51.5039 44.9423 51.56 44.9535C51.6162 44.9646 51.7734 44.9312 52.0092 44.8423C52.3123 44.6978 52.7727 44.4977 53.3903 44.2643C54.0078 44.0308 54.6591 43.7863 55.3328 43.5528C56.0065 43.3194 56.6577 43.1193 57.2753 42.9526C57.8928 42.7858 58.3644 42.708 58.7013 42.708C58.9146 42.708 59.0606 42.7858 59.1504 42.9303C59.2402 43.0193 59.229 43.1415 59.1055 43.286C58.982 43.4306 58.8248 43.5862 58.6339 43.7307C58.443 43.8752 58.2297 44.0086 58.0276 44.1309C57.8142 44.2531 57.6795 44.3198 57.6234 44.3532C57.1068 44.6533 56.4668 44.9868 55.6808 45.3648C54.8949 45.7316 54.2212 46.0984 53.6485 46.4541C53.5924 46.5097 53.4801 46.5764 53.3117 46.632C53.1432 46.6876 53.0197 46.7543 52.9299 46.8098C53.2892 47.6102 53.5475 48.3105 53.6934 48.8886C53.8394 49.4666 53.8955 50.0224 53.8506 50.5671C53.8057 51.1007 53.6934 51.6453 53.5138 52.2012C53.3341 52.757 53.0871 53.3906 52.7951 54.102C52.3685 54.7912 51.9418 55.447 51.5039 56.0695C51.066 56.692 50.5832 57.259 50.033 57.7703C49.494 58.2817 48.8989 58.6818 48.2701 58.9708C47.6413 59.271 46.9452 59.4155 46.1929 59.4155C45.7662 59.4155 45.362 59.3599 44.969 59.2599C44.576 59.1598 44.2504 58.9375 43.9809 58.6151C43.2847 57.8704 42.903 57.0589 42.8131 56.1807C42.7233 55.3025 42.8019 54.4355 43.0377 53.5684C43.2173 53.0349 43.4419 52.5457 43.7114 52.09C44.3739 50.9562 45.1037 50.0002 45.9009 49.2109C46.7094 48.4328 47.5403 47.6769 48.4161 46.9655ZM49.9544 48.9775C49.6175 49.311 49.1684 49.7778 48.5957 50.3892C48.0231 51.0006 47.4954 51.6676 46.9901 52.379C46.496 53.0904 46.0918 53.8019 45.7774 54.5022C45.463 55.2025 45.3844 55.8028 45.5304 56.3141C46.1367 56.0473 46.7543 55.6027 47.3831 54.9913C48.0119 54.3799 48.5733 53.7129 49.0561 52.9793C49.5389 52.2456 49.8758 51.5231 50.0667 50.8116C50.2575 50.0891 50.2239 49.4777 49.9544 48.9775Z" fill="#FF5196" stroke="white" stroke-miterlimit="10"/>
<path d="M41.0947 65.062C27.048 65.062 15.6176 53.7458 15.6176 39.8396C15.6176 25.9334 27.048 14.6172 41.0947 14.6172C55.1414 14.6172 66.5719 25.9334 66.5719 39.8396C66.5719 53.7458 55.1414 65.062 41.0947 65.062ZM41.0947 15.7288C27.6656 15.7288 16.7404 26.5448 16.7404 39.8396C16.7404 53.1344 27.6656 63.9504 41.0947 63.9504C54.5239 63.9504 65.4491 53.1344 65.4491 39.8396C65.4491 26.5448 54.5239 15.7288 41.0947 15.7288Z" fill="#263238"/>
</g>
</svg>
