<svg width="129" height="34" viewBox="0 0 129 34" fill="none" xmlns="http://www.w3.org/2000/svg">
<path d="M27.7088 33.4958H6.61348C3.14681 33.4958 0.33728 30.7143 0.33728 27.2823V6.39802C0.33728 2.96601 3.14681 0.18457 6.61348 0.18457H27.7088C31.1754 0.18457 33.985 2.96601 33.985 6.39802V27.2823C33.985 30.7143 31.1754 33.4958 27.7088 33.4958Z" fill="#7782FF"/>
<path d="M23.2229 17.1464C23.8229 17.8913 24.1277 18.7587 24.1277 19.7393C24.1277 21.1819 23.642 22.3133 22.6706 23.1147C21.6991 23.9162 20.3087 24.331 18.4991 24.331H10.5944V7.50098H18.3087C20.042 7.50098 21.3753 7.87812 22.3182 8.62298C23.2611 9.36784 23.7372 10.4333 23.7372 11.8098C23.7372 12.8281 23.4611 13.6673 22.9182 14.3461C22.3753 15.025 21.6611 15.4587 20.7753 15.6661C21.8134 15.9113 22.6229 16.4016 23.2229 17.1464ZM14.6991 14.3839H17.3944C18.8229 14.3839 19.5372 13.7804 19.5372 12.5736C19.5372 11.3667 18.8039 10.7633 17.3468 10.7633H14.6991V14.3839ZM19.9182 19.1736C19.9182 18.5701 19.7182 18.0987 19.3182 17.7593C18.9182 17.4199 18.3468 17.2501 17.6134 17.2501H14.7086V21.031H17.642C19.1563 21.0216 19.9182 20.4087 19.9182 19.1736Z" fill="white"/>
<path d="M53.4803 24.331L49.8041 17.9761H48.8708V24.331H44.7565V7.50098H51.7755C53.1184 7.50098 54.2613 7.72727 55.1851 8.18927C56.1184 8.65127 56.8136 9.28298 57.2803 10.0844C57.747 10.8858 57.9755 11.8004 57.9755 12.8376C57.9755 14.0633 57.6327 15.1004 56.9565 15.9584C56.2708 16.8164 55.2898 17.401 53.9851 17.7216L58.0232 24.3404H53.4803V24.331ZM48.8708 15.1947H51.4136C52.2327 15.1947 52.8327 15.0156 53.2136 14.6573C53.5946 14.299 53.7946 13.771 53.7946 13.0733C53.7946 12.4038 53.5946 11.8853 53.2041 11.4987C52.8136 11.1216 52.2136 10.9236 51.4136 10.9236H48.8708V15.1947Z" fill="#263238"/>
<path d="M76.5853 21.2666H70.2139L69.1567 24.3403H64.8329L71.0615 7.63281H75.7948L82.0234 24.3403H77.652L76.5853 21.2666ZM75.5282 18.1645L73.4139 11.9794L71.271 18.1645H75.5282Z" fill="#263238"/>
<path d="M104.719 24.331H100.604L93.728 13.9973V24.331H89.6138V7.50098H93.728L100.604 17.929V7.50098H104.719V24.331Z" fill="#263238"/>
<path d="M127.785 20.2771C127.071 21.5499 126.043 22.5493 124.709 23.2659C123.366 23.9825 121.795 24.3408 119.985 24.3408H113.566V7.51074H119.985C121.814 7.51074 123.395 7.8596 124.719 8.55732C126.052 9.25503 127.071 10.2356 127.785 11.5085C128.5 12.7813 128.852 14.2333 128.852 15.8928C128.852 17.5333 128.49 18.9948 127.785 20.2771ZM123.357 19.4285C124.242 18.5893 124.69 17.4013 124.69 15.8833C124.69 14.3559 124.242 13.1773 123.357 12.3382C122.471 11.499 121.223 11.0747 119.614 11.0747H117.671V20.6919H119.614C121.223 20.6919 122.471 20.277 123.357 19.4285Z" fill="#263238"/>
</svg>
