<svg width="150" height="50" viewBox="0 0 150 50" fill="none" xmlns="http://www.w3.org/2000/svg">
<path d="M149.148 8.33318C146.644 7.27715 144.095 6.45456 141.512 5.80983C138.941 5.13175 136.336 4.65376 133.72 4.32027C132.417 4.12018 131.093 4.07572 129.79 3.92009C128.476 3.88675 127.174 3.75335 125.86 3.80893C125.209 3.82005 124.546 3.82005 123.895 3.80893C123.244 3.80893 122.581 3.87563 121.93 3.89786C121.279 3.94233 120.616 3.95344 119.965 4.02014L118.011 4.25358C115.395 4.46478 112.858 4.99835 110.32 5.6542C107.749 6.26559 105.312 7.13264 102.718 7.9997C100.057 8.87787 97.1716 9.41144 94.2747 9.01126C92.8487 8.77782 91.4114 8.2776 90.2774 7.38831C89.1209 6.51014 88.3349 5.3096 87.8521 4.05349C88.6493 5.15398 89.6374 6.05438 90.7714 6.61019C91.9055 7.16599 93.1518 7.39943 94.3982 7.38831C96.9134 7.38831 99.406 6.58795 101.764 5.58751C104.167 4.45367 106.806 3.45322 109.433 2.63063C112.083 1.84138 114.845 1.24112 117.607 0.952097C123.12 0.374061 128.757 0.507454 134.158 1.77469C136.864 2.34161 139.503 3.20866 142.029 4.27581C144.567 5.36518 147.014 6.63242 149.148 8.33318Z" fill="#FEBA66"/>
<path d="M0.852051 40.9599C3.80511 42.1827 6.81431 43.1275 9.87966 43.8501C12.9225 44.606 16.0216 45.1396 19.1206 45.473C20.6701 45.6842 22.2309 45.7065 23.7692 45.851C25.3299 45.8621 26.8794 45.9844 28.4289 45.8954L30.7532 45.8399C31.528 45.8288 32.3027 45.7287 33.0775 45.6842C33.8522 45.6175 34.627 45.5842 35.3905 45.4842L37.6923 45.1618C40.7801 44.8283 43.7781 44.1169 46.7649 43.2609C49.7853 42.4383 52.6373 41.349 55.6577 40.2151C58.7455 39.0924 62.0916 38.3587 65.4826 38.7145C67.1556 38.9257 68.8399 39.4592 70.2097 40.4374C71.5908 41.4045 72.5789 42.7829 73.2077 44.228C72.2645 42.9386 71.0855 41.8825 69.7269 41.2267C68.3683 40.5708 66.8749 40.3041 65.3927 40.3485C62.3948 40.393 59.4417 41.3823 56.6683 42.6273C53.85 44.0057 50.7958 45.2507 47.7193 46.2845C44.6202 47.2738 41.4202 48.0631 38.1752 48.4633C31.7188 49.3081 25.1053 49.3192 18.7276 48.0409C15.5275 47.4628 12.406 46.5624 9.3856 45.4175C6.38763 44.228 3.45703 42.8385 0.852051 40.9599Z" fill="#FEBA66"/>
<path d="M4.27205 30.624L2.05205 28.404V18.104L4.27205 15.884H11.2321L13.2521 17.904L11.6721 19.504L10.2121 18.084H5.43205L4.55205 18.964L4.57205 27.544L5.43205 28.424H10.3921L11.8521 26.984L13.4321 28.604L11.4121 30.624H4.27205ZM17.4603 30.624L15.2403 28.404V20.164H17.6603V27.824L18.5003 28.744H20.5203L22.6403 26.664V20.164H25.0603V30.624H22.6403V29.124L21.1203 30.624H17.4603ZM28.0552 30.624V20.164H30.4752V22.024L32.3552 20.164H34.7152V22.584H32.3752L30.4752 24.484V30.624H28.0552ZM36.4146 30.624V20.164H38.8346V22.024L40.7146 20.164H43.0746V22.584H40.7346L38.8346 24.484V30.624H36.4146ZM46.5791 30.624L44.3591 28.404V22.404L46.5791 20.164H51.3791L53.5991 22.404V26.284H46.7791V27.764L47.6591 28.644H53.4191V30.624H46.5791ZM46.7791 24.424H51.1791V22.924L50.2991 22.044H47.6591L46.7791 22.924V24.424ZM56.395 30.624V20.164H58.815V22.024L60.695 20.164H64.435L66.655 22.404V30.624H64.235V22.964L63.395 22.044H61.275L58.815 24.484V30.624H56.395ZM71.5791 30.624L69.3591 28.404V22.404L71.5791 20.164H76.5791L78.5791 22.124V24.084H76.1591V22.924L75.2791 22.044H72.6591L71.7791 22.924V27.764L72.6591 28.644H78.4991V30.624H71.5791ZM82.4728 34.364L84.3128 30.024H83.3928L79.3528 20.164H82.0128L84.8128 27.644H85.2928L88.0928 20.164H90.7528L84.9128 34.364H82.4728ZM99.2758 30.624L95.8958 15.884H98.5558L100.916 28.244H101.396L103.756 15.884H105.996L108.356 28.244H108.836L111.196 15.884H113.856L110.456 30.624H106.676L104.876 21.324L103.076 30.624H99.2758ZM116.211 30.624L113.991 28.404V26.144L116.211 23.904H121.271V23.024L120.391 22.144H115.371V20.164H121.471L123.691 22.404V30.624H121.271V29.104L119.731 30.624H116.211ZM117.291 28.764L119.171 28.744L121.271 26.644V25.784H117.291L116.411 26.664V27.864L117.291 28.764ZM129.263 30.624L124.783 20.164H127.443L130.463 28.244H130.943L133.963 20.164H136.623L132.123 30.624H129.263ZM139.841 30.624L137.621 28.404V22.404L139.841 20.164H144.641L146.861 22.404V26.284H140.041V27.764L140.921 28.644H146.681V30.624H139.841ZM140.041 24.424H144.441V22.924L143.561 22.044H140.921L140.041 22.924V24.424Z" fill="#263238"/>
</svg>
