<svg width="109" height="40" viewBox="0 0 109 40" fill="none" xmlns="http://www.w3.org/2000/svg">
<path d="M9.95262 31.3804C8.81262 31.3804 7.67262 31.3404 6.53262 31.2604C5.41262 31.2004 4.24262 31.0404 3.02262 30.7804V10.6204C3.98262 10.4404 5.03262 10.3104 6.17262 10.2304C7.31262 10.1304 8.37262 10.0804 9.35262 10.0804C10.6726 10.0804 11.8826 10.1804 12.9826 10.3804C14.1026 10.5604 15.0626 10.8804 15.8626 11.3404C16.6626 11.8004 17.2826 12.4104 17.7226 13.1704C18.1826 13.9104 18.4126 14.8304 18.4126 15.9304C18.4126 17.5904 17.6126 18.9004 16.0126 19.8604C17.3326 20.3604 18.2326 21.0404 18.7126 21.9004C19.1926 22.7604 19.4326 23.7304 19.4326 24.8104C19.4326 26.9904 18.6326 28.6304 17.0326 29.7304C15.4526 30.8304 13.0926 31.3804 9.95262 31.3804ZM7.58262 22.0504V27.4204C7.92262 27.4604 8.29262 27.4904 8.69262 27.5104C9.09262 27.5304 9.53262 27.5404 10.0126 27.5404C11.4126 27.5404 12.5426 27.3404 13.4026 26.9404C14.2626 26.5404 14.6926 25.8004 14.6926 24.7204C14.6926 23.7604 14.3326 23.0804 13.6126 22.6804C12.8926 22.2604 11.8626 22.0504 10.5226 22.0504H7.58262ZM7.58262 18.4804H9.86262C11.3026 18.4804 12.3326 18.3004 12.9526 17.9404C13.5726 17.5604 13.8826 16.9604 13.8826 16.1404C13.8826 15.3004 13.5626 14.7104 12.9226 14.3704C12.2826 14.0304 11.3426 13.8604 10.1026 13.8604C9.70262 13.8604 9.27262 13.8704 8.81262 13.8904C8.35262 13.8904 7.94262 13.9104 7.58262 13.9504V18.4804ZM27.3489 31.1104H22.8789V15.3304H27.3489V31.1104ZM27.7689 10.7704C27.7689 11.5904 27.4989 12.2404 26.9589 12.7204C26.4389 13.1804 25.8189 13.4104 25.0989 13.4104C24.3789 13.4104 23.7489 13.1804 23.2089 12.7204C22.6889 12.2404 22.4289 11.5904 22.4289 10.7704C22.4289 9.95035 22.6889 9.31035 23.2089 8.85035C23.7489 8.37035 24.3789 8.13035 25.0989 8.13035C25.8189 8.13035 26.4389 8.37035 26.9589 8.85035C27.4989 9.31035 27.7689 9.95035 27.7689 10.7704ZM31.4007 11.4004L35.8707 10.6803V15.3304H41.2407V19.0504H35.8707V24.6004C35.8707 25.5404 36.0307 26.2904 36.3507 26.8504C36.6907 27.4104 37.3607 27.6904 38.3607 27.6904C38.8407 27.6904 39.3307 27.6504 39.8307 27.5704C40.3507 27.4704 40.8207 27.3404 41.2407 27.1804L41.8707 30.6604C41.3307 30.8804 40.7307 31.0704 40.0707 31.2304C39.4107 31.3904 38.6007 31.4704 37.6407 31.4704C36.4207 31.4704 35.4107 31.3104 34.6107 30.9904C33.8107 30.6504 33.1707 30.1904 32.6907 29.6104C32.2107 29.0104 31.8707 28.2904 31.6707 27.4504C31.4907 26.6104 31.4007 25.6804 31.4007 24.6604V11.4004Z" fill="#263238"/>
<path d="M82.7526 27.9904C83.1926 27.9904 83.6126 27.9804 84.0126 27.9604C84.4126 27.9404 84.7326 27.9104 84.9726 27.8704V24.4804C84.7926 24.4404 84.5226 24.4004 84.1626 24.3604C83.8026 24.3204 83.4726 24.3004 83.1726 24.3004C82.7526 24.3004 82.3526 24.3304 81.9726 24.3904C81.6126 24.4304 81.2926 24.5204 81.0126 24.6604C80.7326 24.8004 80.5126 24.9904 80.3526 25.2304C80.1926 25.4704 80.1126 25.7704 80.1126 26.1304C80.1126 26.8304 80.3426 27.3204 80.8026 27.6004C81.2826 27.8604 81.9326 27.9904 82.7526 27.9904ZM82.3926 14.9104C83.7126 14.9104 84.8126 15.0604 85.6926 15.3604C86.5726 15.6604 87.2726 16.0904 87.7926 16.6504C88.3326 17.2104 88.7126 17.8904 88.9326 18.6904C89.1526 19.4904 89.2626 20.3804 89.2626 21.3604V30.6604C88.6226 30.8004 87.7326 30.9604 86.5926 31.1404C85.4526 31.3404 84.0726 31.4404 82.4526 31.4404C81.4326 31.4404 80.5026 31.3504 79.6626 31.1704C78.8426 30.9904 78.1326 30.7004 77.5326 30.3004C76.9326 29.8804 76.4726 29.3404 76.1526 28.6804C75.8326 28.0204 75.6726 27.2104 75.6726 26.2504C75.6726 25.3304 75.8526 24.5504 76.2126 23.9104C76.5926 23.2704 77.0926 22.7604 77.7126 22.3804C78.3326 22.0004 79.0426 21.7304 79.8426 21.5704C80.6426 21.3904 81.4726 21.3004 82.3326 21.3004C82.9126 21.3004 83.4226 21.3304 83.8626 21.3904C84.3226 21.4304 84.6926 21.4904 84.9726 21.5704V21.1504C84.9726 20.3904 84.7426 19.7804 84.2826 19.3204C83.8226 18.8604 83.0226 18.6304 81.8826 18.6304C81.1226 18.6304 80.3726 18.6904 79.6326 18.8104C78.8926 18.9104 78.2526 19.0604 77.7126 19.2604L77.1426 15.6604C77.4026 15.5804 77.7226 15.5004 78.1026 15.4204C78.5026 15.3204 78.9326 15.2404 79.3926 15.1804C79.8526 15.1004 80.3326 15.0404 80.8326 15.0004C81.3526 14.9404 81.8726 14.9104 82.3926 14.9104ZM99.5746 20.1304L102.695 15.3304H107.315L101.915 22.9204C103.115 24.4204 104.205 25.8804 105.185 27.3004C106.165 28.7204 106.945 29.9904 107.525 31.1104H102.725C102.565 30.8104 102.365 30.4404 102.125 30.0004C101.885 29.5404 101.615 29.0704 101.315 28.5904C101.015 28.0904 100.695 27.6004 100.355 27.1204C100.035 26.6204 99.7146 26.1704 99.3946 25.7704C99.0946 26.1504 98.7846 26.5704 98.4646 27.0304C98.1646 27.4904 97.8746 27.9604 97.5946 28.4404C97.3146 28.9004 97.0346 29.3604 96.7546 29.8204C96.4946 30.2804 96.2646 30.7104 96.0646 31.1104H91.5046C91.7446 30.6104 92.0746 30.0204 92.4946 29.3404C92.9146 28.6604 93.3646 27.9604 93.8446 27.2404C94.3446 26.5004 94.8646 25.7704 95.4046 25.0504C95.9446 24.3104 96.4746 23.6204 96.9946 22.9804C96.0946 21.7204 95.1946 20.4504 94.2946 19.1704C93.3946 17.8704 92.5046 16.5904 91.6246 15.3304H96.4546L99.5746 20.1304Z" fill="#263238"/>
<path d="M53.1226 11.1104L61.3498 29.8604H44.8953L53.1226 11.1104Z" fill="#FEBA66"/>
<path d="M63.1226 11.1104L71.3498 29.8604H54.8953L63.1226 11.1104Z" fill="#EDA54C"/>
</svg>
