<svg width="114" height="36" viewBox="0 0 114 36" fill="none" xmlns="http://www.w3.org/2000/svg">
<path d="M48.9566 9.99435C48.8846 10.9124 48.8306 11.7944 48.7946 12.6404C48.7766 13.4864 48.7676 14.1344 48.7676 14.5844C48.7676 14.9804 48.7766 15.3584 48.7946 15.7184C48.8126 16.0784 48.8306 16.3844 48.8486 16.6364H48.2276C47.9396 15.1244 47.5706 13.9274 47.1206 13.0454C46.6886 12.1634 46.1666 11.5424 45.5546 11.1824C44.9426 10.8044 44.2226 10.6153 43.3946 10.6153H42.7736V26.0324C42.7736 26.7524 42.8456 27.2924 42.9896 27.6524C43.1516 28.0124 43.4396 28.2554 43.8536 28.3814C44.2676 28.4894 44.8706 28.5524 45.6626 28.5704V29.1104C45.1046 29.0924 44.3576 29.0744 43.4216 29.0564C42.5036 29.0384 41.5406 29.0294 40.5326 29.0294C39.5426 29.0294 38.6066 29.0384 37.7246 29.0564C36.8426 29.0744 36.1316 29.0924 35.5916 29.1104V28.5704C36.4016 28.5524 37.0136 28.4894 37.4276 28.3814C37.8416 28.2554 38.1206 28.0124 38.2646 27.6524C38.4086 27.2924 38.4806 26.7524 38.4806 26.0324V10.6153H37.8866C37.0586 10.6153 36.3386 10.8044 35.7266 11.1824C35.1146 11.5424 34.5926 12.1634 34.1606 13.0454C33.7286 13.9094 33.3506 15.1064 33.0266 16.6364H32.4056C32.4416 16.3844 32.4596 16.0784 32.4596 15.7184C32.4776 15.3584 32.4866 14.9804 32.4866 14.5844C32.4866 14.1344 32.4686 13.4864 32.4326 12.6404C32.4146 11.7944 32.3696 10.9124 32.2976 9.99435C33.1256 10.0124 34.0256 10.0304 34.9976 10.0484C35.9876 10.0664 36.9776 10.0754 37.9676 10.0754C38.9576 10.0754 39.8486 10.0754 40.6406 10.0754C41.4506 10.0754 42.3416 10.0754 43.3136 10.0754C44.3036 10.0754 45.2936 10.0664 46.2836 10.0484C47.2736 10.0304 48.1646 10.0124 48.9566 9.99435ZM53.3462 29.2994C52.5362 29.2994 51.8612 29.1464 51.3212 28.8404C50.7812 28.5344 50.3852 28.1294 50.1332 27.6254C49.8812 27.1034 49.7552 26.5364 49.7552 25.9244C49.7552 25.1504 49.9262 24.5204 50.2682 24.0344C50.6282 23.5484 51.0872 23.1524 51.6452 22.8464C52.2032 22.5404 52.7882 22.2884 53.4002 22.0904C54.0302 21.8924 54.6242 21.7034 55.1822 21.5234C55.7582 21.3254 56.2172 21.1004 56.5592 20.8484C56.9192 20.5784 57.0992 20.2364 57.0992 19.8224V17.7164C57.0992 17.2484 57.0182 16.8344 56.8562 16.4744C56.7122 16.0964 56.4782 15.8084 56.1542 15.6104C55.8482 15.4124 55.4432 15.3134 54.9392 15.3134C54.5792 15.3134 54.2192 15.3674 53.8592 15.4754C53.4992 15.5654 53.2022 15.7274 52.9682 15.9614C53.4722 16.1414 53.8592 16.4204 54.1292 16.7984C54.4172 17.1584 54.5612 17.5724 54.5612 18.0404C54.5612 18.6524 54.3452 19.1384 53.9132 19.4984C53.4992 19.8584 53.0042 20.0384 52.4282 20.0384C51.7802 20.0384 51.2852 19.8404 50.9432 19.4444C50.6192 19.0304 50.4572 18.5354 50.4572 17.9594C50.4572 17.4374 50.5832 17.0054 50.8352 16.6634C51.1052 16.3214 51.4742 15.9974 51.9422 15.6914C52.4462 15.4034 53.0492 15.1784 53.7512 15.0164C54.4712 14.8544 55.2452 14.7734 56.0732 14.7734C56.9012 14.7734 57.6482 14.8634 58.3142 15.0434C58.9802 15.2054 59.5382 15.5114 59.9882 15.9614C60.4022 16.3754 60.6722 16.8884 60.7982 17.5004C60.9242 18.0944 60.9872 18.8504 60.9872 19.7684V27.1124C60.9872 27.5624 61.0322 27.8774 61.1222 28.0574C61.2122 28.2194 61.3652 28.3004 61.5812 28.3004C61.7432 28.3004 61.8962 28.2554 62.0402 28.1654C62.2022 28.0754 62.3732 27.9674 62.5532 27.8414L62.8232 28.3004C62.4452 28.6244 62.0042 28.8764 61.5002 29.0564C61.0142 29.2184 60.4652 29.2994 59.8532 29.2994C59.1872 29.2994 58.6562 29.2094 58.2602 29.0294C57.8642 28.8314 57.5762 28.5704 57.3962 28.2464C57.2342 27.9224 57.1532 27.5444 57.1532 27.1124C56.7212 27.7964 56.1992 28.3364 55.5872 28.7324C54.9752 29.1104 54.2282 29.2994 53.3462 29.2994ZM55.2632 27.5714C55.6232 27.5714 55.9472 27.4904 56.2352 27.3284C56.5412 27.1484 56.8292 26.8604 57.0992 26.4644V20.9294C56.9372 21.1994 56.7122 21.4424 56.4242 21.6584C56.1362 21.8744 55.8302 22.0994 55.5062 22.3334C55.1822 22.5494 54.8672 22.7924 54.5612 23.0624C54.2732 23.3324 54.0392 23.6654 53.8592 24.0614C53.6792 24.4574 53.5892 24.9344 53.5892 25.4924C53.5892 26.1944 53.7422 26.7164 54.0482 27.0584C54.3542 27.4004 54.7592 27.5714 55.2632 27.5714ZM72.8828 14.7734C73.4588 14.7734 73.9268 14.8994 74.2868 15.1514C74.6468 15.3854 74.9078 15.6914 75.0698 16.0694C75.2498 16.4474 75.3398 16.8434 75.3398 17.2574C75.3398 17.9234 75.1418 18.4724 74.7458 18.9044C74.3678 19.3184 73.8638 19.5254 73.2338 19.5254C72.6038 19.5254 72.1088 19.3724 71.7488 19.0664C71.4068 18.7424 71.2358 18.3194 71.2358 17.7974C71.2358 17.2934 71.3438 16.8794 71.5598 16.5554C71.7938 16.2134 72.0818 15.9254 72.4238 15.6914C72.1718 15.6194 71.9198 15.6284 71.6678 15.7184C71.3258 15.7724 71.0018 15.9164 70.6958 16.1504C70.3898 16.3664 70.1288 16.6454 69.9128 16.9874C69.6968 17.3114 69.5258 17.6714 69.3998 18.0674C69.2738 18.4454 69.2108 18.8144 69.2108 19.1744V26.3294C69.2108 27.1934 69.4178 27.7784 69.8318 28.0844C70.2638 28.3904 70.9028 28.5434 71.7488 28.5434V29.1104C71.3348 29.0924 70.7318 29.0744 69.9398 29.0564C69.1478 29.0204 68.3198 29.0024 67.4558 29.0024C66.7358 29.0024 66.0068 29.0204 65.2688 29.0564C64.5308 29.0744 63.9728 29.0924 63.5948 29.1104V28.5434C64.2248 28.5434 64.6658 28.4084 64.9178 28.1384C65.1878 27.8684 65.3228 27.3554 65.3228 26.5994V18.0944C65.3228 17.2844 65.1968 16.6904 64.9448 16.3124C64.7108 15.9164 64.2608 15.7184 63.5948 15.7184V15.1514C64.1708 15.2054 64.7288 15.2324 65.2688 15.2324C66.0248 15.2324 66.7268 15.2054 67.3748 15.1514C68.0408 15.0794 68.6528 14.9804 69.2108 14.8544V17.3654C69.4268 16.8794 69.7148 16.4384 70.0748 16.0424C70.4348 15.6464 70.8488 15.3404 71.3168 15.1244C71.7848 14.8904 72.3068 14.7734 72.8828 14.7734ZM81.4363 34.1864C80.3203 34.1864 79.3213 34.0874 78.4393 33.8894C77.5753 33.7094 76.8913 33.4214 76.3873 33.0254C75.9013 32.6474 75.6583 32.1794 75.6583 31.6214C75.6583 31.0634 75.9103 30.5594 76.4143 30.1094C76.9183 29.6774 77.6653 29.3354 78.6553 29.0834L78.8983 29.5154C78.5563 29.7854 78.3043 30.0734 78.1423 30.3794C77.9983 30.7034 77.9263 31.0364 77.9263 31.3784C77.9263 32.1344 78.2683 32.7104 78.9523 33.1064C79.6543 33.5204 80.5993 33.7274 81.7873 33.7274C82.5973 33.7274 83.3173 33.6194 83.9473 33.4034C84.5953 33.1874 85.0993 32.8634 85.4593 32.4314C85.8373 31.9994 86.0263 31.4684 86.0263 30.8384C86.0263 30.2984 85.8283 29.8394 85.4323 29.4614C85.0363 29.1014 84.2443 28.9214 83.0563 28.9214H81.3823C80.6443 28.9214 79.9963 28.8404 79.4383 28.6784C78.8983 28.5164 78.4753 28.2644 78.1693 27.9224C77.8633 27.5624 77.7103 27.1124 77.7103 26.5724C77.7103 25.8164 78.0073 25.1504 78.6013 24.5744C79.1953 23.9984 80.0773 23.4584 81.2473 22.9544L81.5173 23.1704C81.1753 23.3864 80.8513 23.6204 80.5453 23.8724C80.2573 24.1064 80.1133 24.4124 80.1133 24.7904C80.1133 25.3664 80.4733 25.6544 81.1933 25.6544H84.1363C85.1263 25.6544 86.0083 25.7714 86.7823 26.0054C87.5743 26.2394 88.1953 26.6264 88.6453 27.1664C89.1133 27.6884 89.3473 28.3724 89.3473 29.2184C89.3473 30.1004 89.0593 30.9194 88.4833 31.6754C87.9253 32.4314 87.0613 33.0344 85.8913 33.4844C84.7213 33.9524 83.2363 34.1864 81.4363 34.1864ZM81.7063 23.3594C80.6803 23.3594 79.7623 23.2064 78.9523 22.9004C78.1423 22.5944 77.5033 22.1264 77.0353 21.4964C76.5673 20.8664 76.3333 20.0564 76.3333 19.0664C76.3333 18.0764 76.5673 17.2664 77.0353 16.6364C77.5033 15.9884 78.1423 15.5204 78.9523 15.2324C79.7623 14.9264 80.6803 14.7734 81.7063 14.7734C82.7323 14.7734 83.6503 14.9264 84.4603 15.2324C85.2703 15.5204 85.9093 15.9884 86.3773 16.6364C86.8453 17.2664 87.0793 18.0764 87.0793 19.0664C87.0793 20.0564 86.8453 20.8664 86.3773 21.4964C85.9093 22.1264 85.2703 22.5944 84.4603 22.9004C83.6503 23.2064 82.7323 23.3594 81.7063 23.3594ZM81.7063 22.8734C82.1923 22.8734 82.5703 22.6034 82.8403 22.0634C83.1103 21.5054 83.2453 20.5064 83.2453 19.0664C83.2453 17.6264 83.1103 16.6364 82.8403 16.0964C82.5703 15.5384 82.1923 15.2594 81.7063 15.2594C81.2383 15.2594 80.8603 15.5384 80.5723 16.0964C80.3023 16.6364 80.1673 17.6264 80.1673 19.0664C80.1673 20.5064 80.3023 21.5054 80.5723 22.0634C80.8603 22.6034 81.2383 22.8734 81.7063 22.8734ZM85.9183 17.0954L85.3783 16.9064C85.6483 16.2044 86.0803 15.6194 86.6743 15.1514C87.2863 14.6834 87.9433 14.4494 88.6453 14.4494C89.2213 14.4494 89.6533 14.6114 89.9413 14.9354C90.2473 15.2414 90.4003 15.6464 90.4003 16.1504C90.4003 16.6904 90.2563 17.0954 89.9683 17.3654C89.6803 17.6174 89.3563 17.7434 88.9963 17.7434C88.6903 17.7434 88.4023 17.6354 88.1323 17.4194C87.8803 17.2034 87.7363 16.8794 87.7003 16.4474C87.6643 15.9974 87.8173 15.4214 88.1593 14.7194L88.3483 14.8814C87.6643 15.1334 87.1513 15.4304 86.8093 15.7724C86.4673 16.0964 86.1703 16.5374 85.9183 17.0954ZM97.6662 14.7734C99.2502 14.7734 100.492 15.2414 101.392 16.1774C102.292 17.1134 102.742 18.6434 102.742 20.7674H93.8592L93.8052 20.2544H99.3402C99.3582 19.3724 99.3042 18.5624 99.1782 17.8244C99.0522 17.0684 98.8542 16.4654 98.5842 16.0154C98.3142 15.5654 97.9542 15.3404 97.5042 15.3404C96.8742 15.3404 96.3342 15.7364 95.8842 16.5284C95.4522 17.3204 95.1912 18.6344 95.1012 20.4704L95.1822 20.6324C95.1642 20.8484 95.1462 21.0734 95.1282 21.3074C95.1282 21.5414 95.1282 21.7844 95.1282 22.0364C95.1282 23.2784 95.2992 24.2864 95.6412 25.0604C96.0012 25.8344 96.4512 26.4014 96.9912 26.7614C97.5312 27.1034 98.0802 27.2744 98.6382 27.2744C99.0162 27.2744 99.4032 27.2204 99.7992 27.1124C100.213 26.9864 100.627 26.7704 101.041 26.4644C101.455 26.1404 101.842 25.6904 102.202 25.1144L102.688 25.2764C102.472 25.9604 102.13 26.6264 101.662 27.2744C101.194 27.9224 100.6 28.4534 99.8802 28.8674C99.1602 29.2814 98.2962 29.4884 97.2882 29.4884C96.0642 29.4884 94.9842 29.2274 94.0482 28.7054C93.1122 28.1834 92.3742 27.3914 91.8342 26.3294C91.3122 25.2674 91.0512 23.9174 91.0512 22.2794C91.0512 20.6054 91.3302 19.2104 91.8882 18.0944C92.4642 16.9784 93.2472 16.1504 94.2372 15.6104C95.2452 15.0524 96.3882 14.7734 97.6662 14.7734ZM109.787 10.7234V15.1514H112.973V15.6914H109.787V26.5994C109.787 27.1394 109.886 27.5264 110.084 27.7604C110.282 27.9764 110.579 28.0844 110.975 28.0844C111.299 28.0844 111.623 27.9674 111.947 27.7334C112.271 27.4814 112.559 27.0584 112.811 26.4644L113.27 26.7074C112.982 27.5174 112.541 28.1834 111.947 28.7054C111.371 29.2274 110.579 29.4884 109.571 29.4884C108.977 29.4884 108.455 29.4074 108.005 29.2454C107.555 29.1014 107.177 28.8764 106.871 28.5704C106.475 28.1744 106.214 27.6884 106.088 27.1124C105.962 26.5184 105.899 25.7534 105.899 24.8174V15.6914H103.631V15.1514H105.899V11.5874C106.655 11.5874 107.348 11.5244 107.978 11.3984C108.626 11.2544 109.229 11.0294 109.787 10.7234Z" fill="#263238"/>
<rect x="0.622559" y="5.11035" width="26" height="26" rx="5" fill="#FFB6D3"/>
<circle cx="13.6226" cy="18.1104" r="5" fill="#FF5196"/>
<path d="M13.6226 12.5104V11.1104M13.6226 25.1104V23.7104M19.2226 18.1104H20.6226M6.62256 18.1104H8.02256M13.6226 13.0704C12.6257 13.0704 11.6513 13.3659 10.8225 13.9197C9.99366 14.4735 9.34767 15.2607 8.96621 16.1816C8.58474 17.1026 8.48493 18.1159 8.6794 19.0936C8.87387 20.0713 9.35388 20.9693 10.0587 21.6742C10.7636 22.379 11.6616 22.859 12.6393 23.0535C13.617 23.248 14.6303 23.1482 15.5513 22.7667C16.4722 22.3852 17.2594 21.7392 17.8132 20.9104C18.367 20.0816 18.6626 19.1072 18.6626 18.1104C18.6626 16.7737 18.1316 15.4917 17.1864 14.5465C16.2412 13.6013 14.9592 13.0704 13.6226 13.0704Z" stroke="white" stroke-width="2" stroke-linecap="square" stroke-linejoin="round"/>
</svg>
