<svg width="127" height="49" viewBox="0 0 127 49" fill="none" xmlns="http://www.w3.org/2000/svg">
<path d="M9.18056 13.2664C9.08723 13.0424 8.96123 12.7577 8.80256 12.4124C8.65323 12.067 8.48989 11.6937 8.31256 11.2924C8.13523 10.891 7.94389 10.4804 7.73856 10.0604C7.54256 9.63102 7.35589 9.22968 7.17856 8.85635C7.00123 8.47368 6.83323 8.13302 6.67456 7.83435C6.52523 7.53568 6.40389 7.30702 6.31056 7.14835C6.20789 8.24968 6.12389 9.44435 6.05856 10.7324C5.99323 12.011 5.93723 13.3037 5.89056 14.6104H4.56056C4.59789 13.7704 4.63989 12.9257 4.68656 12.0764C4.73323 11.2177 4.78456 10.3777 4.84056 9.55635C4.90589 8.72568 4.97123 7.91835 5.03656 7.13435C5.11123 6.35035 5.19056 5.60835 5.27456 4.90835H6.46456C6.71656 5.31902 6.98723 5.80435 7.27656 6.36435C7.56589 6.92435 7.85523 7.51235 8.14456 8.12835C8.43389 8.73502 8.71389 9.34635 8.98456 9.96235C9.25523 10.569 9.50256 11.1244 9.72656 11.6284C9.95056 11.1244 10.1979 10.569 10.4686 9.96235C10.7392 9.34635 11.0192 8.73502 11.3086 8.12835C11.5979 7.51235 11.8872 6.92435 12.1766 6.36435C12.4659 5.80435 12.7366 5.31902 12.9886 4.90835H14.1786C14.4959 8.03502 14.7339 11.269 14.8926 14.6104H13.5626C13.5159 13.3037 13.4599 12.011 13.3946 10.7324C13.3292 9.44435 13.2452 8.24968 13.1426 7.14835C13.0492 7.30702 12.9232 7.53568 12.7646 7.83435C12.6152 8.13302 12.4519 8.47368 12.2746 8.85635C12.0972 9.22968 11.9059 9.63102 11.7006 10.0604C11.5046 10.4804 11.3179 10.891 11.1406 11.2924C10.9632 11.6937 10.7952 12.067 10.6366 12.4124C10.4872 12.7577 10.3659 13.0424 10.2726 13.2664H9.18056ZM23.3639 10.9704C23.3639 11.549 23.2799 12.0717 23.1119 12.5384C22.9439 13.005 22.7059 13.4064 22.3979 13.7424C22.0992 14.0784 21.7399 14.3397 21.3199 14.5264C20.8999 14.7037 20.4425 14.7924 19.9479 14.7924C19.4532 14.7924 18.9959 14.7037 18.5759 14.5264C18.1559 14.3397 17.7919 14.0784 17.4839 13.7424C17.1852 13.4064 16.9519 13.005 16.7839 12.5384C16.6159 12.0717 16.5319 11.549 16.5319 10.9704C16.5319 10.401 16.6159 9.88302 16.7839 9.41635C16.9519 8.94035 17.1852 8.53435 17.4839 8.19835C17.7919 7.86235 18.1559 7.60568 18.5759 7.42835C18.9959 7.24168 19.4532 7.14835 19.9479 7.14835C20.4425 7.14835 20.8999 7.24168 21.3199 7.42835C21.7399 7.60568 22.0992 7.86235 22.3979 8.19835C22.7059 8.53435 22.9439 8.94035 23.1119 9.41635C23.2799 9.88302 23.3639 10.401 23.3639 10.9704ZM22.0059 10.9704C22.0059 10.149 21.8192 9.50035 21.4459 9.02435C21.0819 8.53902 20.5825 8.29635 19.9479 8.29635C19.3132 8.29635 18.8092 8.53902 18.4359 9.02435C18.0719 9.50035 17.8899 10.149 17.8899 10.9704C17.8899 11.7917 18.0719 12.445 18.4359 12.9304C18.8092 13.4064 19.3132 13.6444 19.9479 13.6444C20.5825 13.6444 21.0819 13.4064 21.4459 12.9304C21.8192 12.445 22.0059 11.7917 22.0059 10.9704ZM29.8997 8.87035C29.741 8.73968 29.5124 8.61368 29.2137 8.49235C28.915 8.37102 28.5884 8.31035 28.2337 8.31035C27.8604 8.31035 27.5384 8.38035 27.2677 8.52035C27.0064 8.65102 26.7917 8.83768 26.6237 9.08035C26.4557 9.31368 26.3344 9.59368 26.2597 9.92035C26.185 10.247 26.1477 10.597 26.1477 10.9704C26.1477 11.8197 26.3577 12.4777 26.7777 12.9444C27.1977 13.4017 27.7577 13.6304 28.4577 13.6304C28.8124 13.6304 29.1064 13.6164 29.3397 13.5884C29.5824 13.551 29.769 13.5137 29.8997 13.4764V8.87035ZM29.8997 3.97035L31.2017 3.74635V14.4004C30.903 14.4844 30.5204 14.5684 30.0537 14.6524C29.587 14.7364 29.0504 14.7784 28.4437 14.7784C27.8837 14.7784 27.3797 14.6897 26.9317 14.5124C26.4837 14.335 26.101 14.083 25.7837 13.7564C25.4664 13.4297 25.219 13.033 25.0417 12.5664C24.8737 12.0904 24.7897 11.5584 24.7897 10.9704C24.7897 10.4104 24.8597 9.89702 24.9997 9.43035C25.149 8.96368 25.3637 8.56235 25.6437 8.22635C25.9237 7.89035 26.2644 7.62902 26.6657 7.44235C27.0764 7.25568 27.543 7.16235 28.0657 7.16235C28.4857 7.16235 28.8544 7.21835 29.1717 7.33035C29.4984 7.44235 29.741 7.54968 29.8997 7.65235V3.97035ZM33.0338 10.9844C33.0338 10.3404 33.1272 9.78035 33.3138 9.30435C33.5005 8.81902 33.7478 8.41768 34.0558 8.10035C34.3638 7.78302 34.7185 7.54502 35.1198 7.38635C35.5212 7.22768 35.9318 7.14835 36.3518 7.14835C37.3318 7.14835 38.0832 7.45635 38.6058 8.07235C39.1285 8.67902 39.3898 9.60768 39.3898 10.8584C39.3898 10.9144 39.3898 10.989 39.3898 11.0824C39.3898 11.1664 39.3852 11.2457 39.3758 11.3204H34.3918C34.4478 12.0764 34.6672 12.6504 35.0498 13.0424C35.4325 13.4344 36.0298 13.6304 36.8418 13.6304C37.2992 13.6304 37.6818 13.593 37.9898 13.5184C38.3072 13.4344 38.5452 13.355 38.7038 13.2804L38.8858 14.3724C38.7272 14.4564 38.4472 14.545 38.0458 14.6384C37.6538 14.7317 37.2058 14.7784 36.7018 14.7784C36.0672 14.7784 35.5165 14.685 35.0498 14.4984C34.5925 14.3024 34.2145 14.0364 33.9158 13.7004C33.6172 13.3644 33.3932 12.9677 33.2438 12.5104C33.1038 12.0437 33.0338 11.535 33.0338 10.9844ZM38.0318 10.2704C38.0412 9.68235 37.8918 9.20168 37.5838 8.82835C37.2852 8.44568 36.8698 8.25435 36.3378 8.25435C36.0392 8.25435 35.7732 8.31502 35.5398 8.43635C35.3158 8.54835 35.1245 8.69768 34.9658 8.88435C34.8072 9.07102 34.6812 9.28568 34.5878 9.52835C34.5038 9.77102 34.4478 10.0184 34.4198 10.2704H38.0318ZM43.9481 7.17635C44.0601 7.17635 44.1861 7.18568 44.3261 7.20435C44.4755 7.21368 44.6201 7.23235 44.7601 7.26035C44.9001 7.27902 45.0261 7.30235 45.1381 7.33035C45.2595 7.34902 45.3481 7.36768 45.4041 7.38635L45.1801 8.52035C45.0775 8.48302 44.9048 8.44102 44.6621 8.39435C44.4288 8.33835 44.1255 8.31035 43.7521 8.31035C43.5095 8.31035 43.2668 8.33835 43.0241 8.39435C42.7908 8.44102 42.6368 8.47368 42.5621 8.49235V14.6104H41.2601V7.63835C41.5681 7.52635 41.9508 7.42368 42.4081 7.33035C42.8655 7.22768 43.3788 7.17635 43.9481 7.17635ZM46.6605 7.54035C46.9592 7.46568 47.3559 7.38635 47.8505 7.30235C48.3452 7.21835 48.9145 7.17635 49.5585 7.17635C50.1372 7.17635 50.6179 7.26035 51.0005 7.42835C51.3832 7.58702 51.6865 7.81568 51.9105 8.11435C52.1439 8.40368 52.3072 8.75368 52.4005 9.16435C52.4939 9.57502 52.5405 10.0277 52.5405 10.5224V14.6104H51.2385V10.8024C51.2385 10.3544 51.2059 9.97168 51.1405 9.65435C51.0845 9.33702 50.9865 9.08035 50.8465 8.88435C50.7065 8.68835 50.5199 8.54835 50.2865 8.46435C50.0532 8.37102 49.7639 8.32435 49.4185 8.32435C49.2785 8.32435 49.1339 8.32902 48.9845 8.33835C48.8352 8.34768 48.6905 8.36168 48.5505 8.38035C48.4199 8.38968 48.2985 8.40368 48.1865 8.42235C48.0839 8.44102 48.0092 8.45502 47.9625 8.46435V14.6104H46.6605V7.54035Z" fill="#263238"/>
<path d="M12.5026 41.0304C9.12256 41.0304 6.54256 40.0904 4.76256 38.2104C3.00256 36.3304 2.12256 33.6604 2.12256 30.2004C2.12256 28.4804 2.39256 26.9504 2.93256 25.6104C3.47256 24.2504 4.21256 23.1104 5.15256 22.1904C6.09256 21.2504 7.21256 20.5404 8.51256 20.0603C9.81256 19.5803 11.2226 19.3404 12.7426 19.3404C13.6226 19.3404 14.4226 19.4104 15.1426 19.5504C15.8626 19.6704 16.4926 19.8204 17.0326 20.0004C17.5726 20.1604 18.0226 20.3304 18.3826 20.5104C18.7426 20.6904 19.0026 20.8304 19.1626 20.9304L17.8126 24.7104C17.1726 24.3704 16.4226 24.0804 15.5626 23.8404C14.7226 23.6004 13.7626 23.4804 12.6826 23.4804C11.9626 23.4804 11.2526 23.6004 10.5526 23.8404C9.87256 24.0804 9.26256 24.4704 8.72256 25.0104C8.20256 25.5304 7.78256 26.2104 7.46256 27.0504C7.14256 27.8904 6.98256 28.9104 6.98256 30.1104C6.98256 31.0704 7.08256 31.9704 7.28256 32.8104C7.50256 33.6304 7.84256 34.3404 8.30256 34.9404C8.78256 35.5404 9.40256 36.0204 10.1626 36.3804C10.9226 36.7204 11.8426 36.8904 12.9226 36.8904C13.6026 36.8904 14.2126 36.8504 14.7526 36.7704C15.2926 36.6904 15.7726 36.6004 16.1926 36.5004C16.6126 36.3804 16.9826 36.2504 17.3026 36.1104C17.6226 35.9704 17.9126 35.8404 18.1726 35.7204L19.4626 39.4704C18.8026 39.8704 17.8726 40.2304 16.6726 40.5504C15.4726 40.8704 14.0826 41.0304 12.5026 41.0304ZM31.6857 28.7904C31.2857 28.6904 30.8157 28.5904 30.2757 28.4904C29.7357 28.3704 29.1557 28.3104 28.5357 28.3104C28.2557 28.3104 27.9157 28.3404 27.5157 28.4004C27.1357 28.4404 26.8457 28.4904 26.6457 28.5504V40.6104H22.1757V25.6704C22.9757 25.3904 23.9157 25.1304 24.9957 24.8904C26.0957 24.6304 27.3157 24.5004 28.6557 24.5004C28.8957 24.5004 29.1857 24.5204 29.5257 24.5604C29.8657 24.5804 30.2057 24.6204 30.5457 24.6804C30.8857 24.7204 31.2257 24.7804 31.5657 24.8604C31.9057 24.9204 32.1957 25.0004 32.4357 25.1004L31.6857 28.7904ZM49.7794 24.8304C48.8794 27.8704 47.9394 30.7204 46.9594 33.3804C45.9794 36.0404 44.9094 38.6204 43.7494 41.1204C43.3294 42.0204 42.9094 42.7804 42.4894 43.4004C42.0694 44.0404 41.6094 44.5604 41.1094 44.9604C40.6094 45.3804 40.0394 45.6804 39.3994 45.8604C38.7794 46.0604 38.0494 46.1604 37.2094 46.1604C36.5094 46.1604 35.8594 46.0904 35.2594 45.9504C34.6794 45.8304 34.1994 45.6904 33.8194 45.5304L34.5994 41.9604C35.0594 42.1204 35.4694 42.2304 35.8294 42.2904C36.1894 42.3504 36.5694 42.3804 36.9694 42.3804C37.7694 42.3804 38.3794 42.1604 38.7994 41.7204C39.2394 41.3004 39.6094 40.7104 39.9094 39.9504C38.8894 37.9504 37.8694 35.7104 36.8494 33.2304C35.8294 30.7304 34.8694 27.9304 33.9694 24.8304H38.7094C38.9094 25.6104 39.1394 26.4604 39.3994 27.3804C39.6794 28.2804 39.9694 29.2004 40.2694 30.1404C40.5694 31.0604 40.8694 31.9604 41.1694 32.8404C41.4894 33.7204 41.7894 34.5204 42.0694 35.2404C42.3294 34.5204 42.5994 33.7204 42.8794 32.8404C43.1594 31.9604 43.4294 31.0604 43.6894 30.1404C43.9694 29.2004 44.2294 28.2804 44.4694 27.3804C44.7294 26.4604 44.9594 25.6104 45.1594 24.8304H49.7794ZM62.2857 32.8404C62.2857 31.4604 61.9757 30.3604 61.3557 29.5404C60.7357 28.7004 59.8157 28.2804 58.5957 28.2804C58.1957 28.2804 57.8257 28.3004 57.4857 28.3404C57.1457 28.3604 56.8657 28.3904 56.6457 28.4304V36.5004C56.9257 36.6804 57.2857 36.8304 57.7257 36.9504C58.1857 37.0704 58.6457 37.1304 59.1057 37.1304C61.2257 37.1304 62.2857 35.7004 62.2857 32.8404ZM66.8457 32.7204C66.8457 33.9404 66.6957 35.0504 66.3957 36.0504C66.0957 37.0504 65.6557 37.9104 65.0757 38.6304C64.4957 39.3504 63.7757 39.9104 62.9157 40.3104C62.0557 40.7104 61.0657 40.9104 59.9457 40.9104C59.3257 40.9104 58.7457 40.8504 58.2057 40.7304C57.6657 40.6104 57.1457 40.4404 56.6457 40.2204V46.1604H52.1757V25.3704C52.5757 25.2504 53.0357 25.1404 53.5557 25.0403C54.0757 24.9204 54.6157 24.8204 55.1757 24.7404C55.7557 24.6604 56.3357 24.6004 56.9157 24.5604C57.5157 24.5004 58.0857 24.4704 58.6257 24.4704C59.9257 24.4704 61.0857 24.6704 62.1057 25.0704C63.1257 25.4504 63.9857 26.0004 64.6857 26.7204C65.3857 27.4204 65.9157 28.2804 66.2757 29.3004C66.6557 30.3204 66.8457 31.4604 66.8457 32.7204ZM70.1312 20.9004L74.6012 20.1803V24.8304H79.9712V28.5504H74.6012V34.1004C74.6012 35.0404 74.7612 35.7904 75.0812 36.3504C75.4212 36.9104 76.0912 37.1904 77.0912 37.1904C77.5712 37.1904 78.0612 37.1504 78.5612 37.0704C79.0812 36.9704 79.5512 36.8404 79.9712 36.6804L80.6012 40.1604C80.0612 40.3804 79.4612 40.5704 78.8012 40.7304C78.1412 40.8904 77.3312 40.9704 76.3712 40.9704C75.1512 40.9704 74.1412 40.8104 73.3412 40.4904C72.5412 40.1504 71.9012 39.6904 71.4212 39.1104C70.9412 38.5104 70.6012 37.7904 70.4012 36.9504C70.2212 36.1104 70.1312 35.1804 70.1312 34.1604V20.9004ZM97.7853 32.6904C97.7853 33.9304 97.6053 35.0704 97.2453 36.1104C96.8853 37.1304 96.3653 38.0104 95.6853 38.7504C95.0053 39.4704 94.1853 40.0304 93.2253 40.4304C92.2853 40.8304 91.2253 41.0304 90.0453 41.0304C88.8853 41.0304 87.8253 40.8304 86.8653 40.4304C85.9253 40.0304 85.1153 39.4704 84.4353 38.7504C83.7553 38.0104 83.2253 37.1304 82.8453 36.1104C82.4653 35.0704 82.2753 33.9304 82.2753 32.6904C82.2753 31.4504 82.4653 30.3204 82.8453 29.3004C83.2453 28.2804 83.7853 27.4104 84.4653 26.6904C85.1653 25.9704 85.9853 25.4104 86.9253 25.0104C87.8853 24.6104 88.9253 24.4104 90.0453 24.4104C91.1853 24.4104 92.2253 24.6104 93.1653 25.0104C94.1253 25.4104 94.9453 25.9704 95.6253 26.6904C96.3053 27.4104 96.8353 28.2804 97.2153 29.3004C97.5953 30.3204 97.7853 31.4504 97.7853 32.6904ZM93.2253 32.6904C93.2253 31.3104 92.9453 30.2304 92.3853 29.4504C91.8453 28.6504 91.0653 28.2504 90.0453 28.2504C89.0253 28.2504 88.2353 28.6504 87.6753 29.4504C87.1153 30.2304 86.8353 31.3104 86.8353 32.6904C86.8353 34.0704 87.1153 35.1704 87.6753 35.9904C88.2353 36.7904 89.0253 37.1904 90.0453 37.1904C91.0653 37.1904 91.8453 36.7904 92.3853 35.9904C92.9453 35.1704 93.2253 34.0704 93.2253 32.6904Z" fill="#263238"/>
<path d="M114.623 43.6104V30.6669L104.623 21.6104V43.6104H114.623Z" fill="#27CAEA"/>
<path d="M126.574 43.2965V30.5377L116.918 21.6104V43.2965H126.574Z" fill="#FFB04E"/>
</svg>
