<svg width="93" height="37" viewBox="0 0 93 37" fill="none" xmlns="http://www.w3.org/2000/svg">
<path d="M0.574219 22.9906V0.24707H14.1044V22.9795H0.574219V22.9906ZM12.4651 17.6993L12.8132 15.1871L11.5556 15.0648L11.1738 16.999C10.3878 17.3881 9.42218 17.5771 8.26566 17.5771C6.69369 17.5771 5.44733 17.0879 4.53783 16.0986C3.61711 15.1093 3.16797 13.8087 3.16797 12.1858C3.16797 10.6073 3.61711 9.30669 4.50415 8.28401C5.39119 7.26132 6.55897 6.74998 8.00743 6.74998C8.7485 6.74998 9.37727 6.83891 9.88255 7.00565C10.3878 7.17239 10.8482 7.39472 11.2861 7.68373L11.6567 9.5957L12.9367 9.47343L12.5661 6.96119C12.0272 6.50543 11.3871 6.1386 10.6461 5.84958C9.905 5.57168 8.98429 5.42717 7.89514 5.42717C6.60388 5.42717 5.49227 5.73842 4.56031 6.37204C3.62836 7.00565 2.89851 7.83936 2.382 8.87316C1.8655 9.91807 1.60724 11.0408 1.60724 12.2413C1.60724 14.1422 2.20234 15.7318 3.39255 16.999C4.58276 18.2663 6.13227 18.8999 8.05232 18.8999C9.93869 18.8999 11.4096 18.4997 12.4651 17.6993Z" fill="#263238"/>
<path d="M18.697 22.9906V0.24707H24.5133V22.9795H18.697V22.9906ZM19.3146 18.6998H23.907V17.5548H22.3238V4.86025H19.2921V6.00521H20.8978V17.5548H19.3146V18.6998Z" fill="#263238"/>
<path d="M29.1057 22.9906V0.24707H39.3235V22.9795H29.1057V22.9906ZM30.9584 10.4294L30.6328 12.497L31.8118 12.6415L32.1598 11.0964C32.6651 10.8518 33.2378 10.7295 33.9115 10.7295C34.7199 10.7295 35.2701 10.9296 35.5508 11.3298C35.8315 11.73 35.9663 12.2524 35.9663 12.8972V13.6975C35.7192 13.6753 35.461 13.6531 35.1803 13.642C34.8996 13.6308 34.6301 13.6197 34.3606 13.6197C33.3501 13.6197 32.3844 13.7976 31.4861 14.1533C30.5879 14.509 30.1387 15.2538 30.1387 16.3765C30.1387 17.3325 30.4419 17.9883 31.0595 18.3441C31.677 18.7109 32.2834 18.8888 32.8785 18.8888C33.6083 18.8888 34.2371 18.6998 34.7536 18.3218C35.2701 17.9439 35.6743 17.5215 35.9663 17.0324V17.0768C35.9887 18.2885 36.5389 18.8888 37.6168 18.8888C38.0323 18.8888 38.4253 18.7887 38.7958 18.5886L38.7734 17.666C38.5937 17.7438 38.3916 17.7883 38.167 17.7883C37.6505 17.7883 37.3923 17.4659 37.3923 16.8212V12.5637C37.3923 10.5628 36.3143 9.56236 34.1585 9.56236C33.5634 9.56236 33.002 9.62905 32.4742 9.76244C31.9353 9.90695 31.43 10.1293 30.9584 10.4294ZM35.955 15.3427C35.8989 16.0764 35.5957 16.6655 35.0455 17.0879C34.4953 17.5215 33.9115 17.7327 33.2827 17.7327C32.8897 17.7327 32.5079 17.6215 32.1486 17.4103C31.7781 17.1991 31.5984 16.7989 31.5984 16.2209C31.5984 15.5206 31.8791 15.0759 32.4181 14.8647C32.9683 14.6535 33.5746 14.5535 34.2595 14.5535C34.5627 14.5535 34.8546 14.5646 35.1353 14.5979C35.4161 14.6202 35.6968 14.6424 35.9438 14.6535V15.3427H35.955Z" fill="#263238"/>
<path d="M43.9271 22.9906V0.24707H53.213V22.9795H43.9271V22.9906ZM52.2361 16.1097C52.2361 15.3983 52.0452 14.8758 51.6635 14.5312C51.2817 14.1866 50.8213 13.9532 50.2599 13.8198C49.6985 13.6864 49.1483 13.5753 48.5981 13.4863C48.0479 13.3974 47.5763 13.2529 47.1946 13.0639C46.8128 12.8749 46.6219 12.5415 46.6219 12.0635C46.6219 11.6077 46.8016 11.2742 47.1721 11.0519C47.5426 10.8296 48.003 10.7295 48.5757 10.7295C49.2381 10.7295 49.8557 10.8741 50.4284 11.1742L50.6529 12.6193L51.8319 12.4748L51.6073 10.3849C51.2256 10.1515 50.7652 9.96253 50.215 9.80691C49.6648 9.65128 49.0809 9.56236 48.4522 9.56236C47.6213 9.56236 46.8577 9.76244 46.1504 10.1515C45.443 10.5406 45.0949 11.2075 45.0949 12.1635C45.0949 12.8638 45.2857 13.3752 45.6675 13.6975C46.0493 14.031 46.5209 14.2533 47.0935 14.3867C47.6662 14.5201 48.2276 14.6313 48.789 14.7313C49.3504 14.8203 49.822 14.9759 50.2038 15.176C50.5855 15.3761 50.7764 15.7207 50.7764 16.2209C50.7764 16.7322 50.5294 17.1102 50.0353 17.3547C49.5413 17.5993 48.9799 17.7216 48.3399 17.7216C47.6213 17.7216 46.9475 17.5771 46.33 17.2769L46.3861 16.0875L45.2521 15.9652L44.9714 17.9995C45.3643 18.2551 45.8808 18.4663 46.5096 18.6331C47.1384 18.7998 47.7672 18.8888 48.4072 18.8888C49.4964 18.8888 50.4059 18.6442 51.1358 18.144C51.8656 17.666 52.2361 16.9768 52.2361 16.1097Z" fill="#263238"/>
<path d="M57.8057 22.9906V0.24707H67.0915V22.9795H57.8057V22.9906ZM66.1146 16.1097C66.1146 15.3983 65.9237 14.8758 65.542 14.5312C65.1602 14.1866 64.6998 13.9532 64.1384 13.8198C63.577 13.6864 63.0268 13.5753 62.4766 13.4863C61.9264 13.3974 61.4549 13.2529 61.0731 13.0639C60.6913 12.8749 60.5004 12.5415 60.5004 12.0635C60.5004 11.6077 60.6801 11.2742 61.0506 11.0519C61.4211 10.8296 61.8815 10.7295 62.4542 10.7295C63.1166 10.7295 63.7342 10.8741 64.3069 11.1742L64.5314 12.6193L65.7104 12.4748L65.4858 10.3849C65.1041 10.1515 64.6437 9.96253 64.0935 9.80691C63.5433 9.65128 62.9595 9.56236 62.3307 9.56236C61.4998 9.56236 60.7362 9.76244 60.0289 10.1515C59.3215 10.5406 58.9734 11.2075 58.9734 12.1635C58.9734 12.8638 59.1643 13.3752 59.546 13.6975C59.9278 14.031 60.3994 14.2533 60.9721 14.3867C61.5447 14.5201 62.1061 14.6313 62.6675 14.7313C63.2289 14.8203 63.7005 14.9759 64.0823 15.176C64.4641 15.3761 64.6549 15.7207 64.6549 16.2209C64.6549 16.7322 64.4079 17.1102 63.9139 17.3547C63.4199 17.5993 62.8584 17.7216 62.2184 17.7216C61.4998 17.7216 60.826 17.5771 60.2085 17.2769L60.2647 16.0875L59.1306 15.9652L58.8499 17.9995C59.2429 18.2551 59.7594 18.4663 60.3882 18.6331C61.017 18.7998 61.6458 18.8888 62.2858 18.8888C63.3749 18.8888 64.2844 18.6442 65.0143 18.144C65.7441 17.666 66.1146 16.9768 66.1146 16.1097Z" fill="#263238"/>
<path d="M71.6837 22.9906V0.24707H77.8032V22.9795H71.6837V22.9906ZM72.582 18.6998H77.1744V17.5548H75.5912V9.75133H72.5483V10.8963H74.1764V17.5548H72.5932V18.6998H72.582ZM74.0192 5.60503V7.43918H75.5688V5.60503H74.0192Z" fill="#263238"/>
<path d="M82.3954 22.9906V0.24707H92.1753V22.9795H82.3954V22.9906ZM91.2995 15.6873L90.0756 15.4205C89.8061 16.9323 88.9865 17.6882 87.6391 17.6882C86.7408 17.6882 86.0559 17.3881 85.5843 16.7878C85.1127 16.1875 84.8769 15.3427 84.8769 14.2756C84.8769 13.3085 85.0902 12.4859 85.5057 11.7967C85.9211 11.1075 86.6172 10.774 87.5829 10.774C88.324 10.774 88.9752 10.9407 89.5142 11.2742L89.8623 12.786L91.0412 12.6415L90.6932 10.485C90.2328 10.1404 89.75 9.89584 89.2447 9.76244C88.7395 9.62905 88.1892 9.56236 87.5941 9.56236C86.1906 9.56236 85.1239 10.0515 84.4277 11.0297C83.7203 12.0079 83.3722 13.1195 83.3722 14.3534C83.3722 15.7874 83.7428 16.9101 84.4951 17.6993C85.2362 18.4997 86.2355 18.8999 87.4819 18.8999C88.7282 18.8999 89.649 18.5553 90.2328 17.8772C90.8167 17.188 91.176 16.4654 91.2995 15.6873Z" fill="#263238"/>
<path d="M6.42415 35.4072C6.1659 35.8741 5.78413 36.241 5.29008 36.4966C4.7848 36.7523 4.18969 36.8857 3.49353 36.8857H1.48364V30.6162H3.49353C4.18969 30.6162 4.79603 30.7385 5.29008 30.9942C5.78413 31.2498 6.1659 31.6055 6.42415 32.0835C6.68241 32.5615 6.80591 33.1062 6.80591 33.7509C6.80591 34.3846 6.68241 34.9404 6.42415 35.4072ZM5.31252 35.5295C5.75043 35.1071 5.96379 34.518 5.96379 33.7509C5.96379 32.9839 5.75043 32.3948 5.31252 31.9724C4.87462 31.55 4.24582 31.3388 3.41492 31.3388H2.28088V36.1631H3.41492C4.24582 36.1631 4.87462 35.9519 5.31252 35.5295Z" fill="#FF5196"/>
<path d="M10.9718 31.2721V33.4175H13.3747V34.04H10.9718V36.2298H13.6441V36.8857H10.1521V30.6162H13.6441V31.2721H10.9718Z" fill="#FF5196"/>
<path d="M20.7406 36.0846C20.5946 36.3403 20.3813 36.5515 20.0893 36.7071C19.7974 36.8628 19.4381 36.9517 19.0002 36.9517C18.5847 36.9517 18.203 36.8739 17.8773 36.7294C17.5517 36.5738 17.2935 36.3737 17.0914 36.1069C16.9005 35.8401 16.7882 35.54 16.7545 35.2065H17.6303C17.6528 35.3843 17.7089 35.5622 17.81 35.7289C17.911 35.8957 18.0682 36.0402 18.2591 36.1513C18.45 36.2625 18.6858 36.3181 18.9665 36.3181C19.3258 36.3181 19.6065 36.2292 19.7974 36.0291C19.9883 35.829 20.0893 35.5955 20.0893 35.2954C20.0893 35.0397 20.022 34.8285 19.8872 34.6729C19.7525 34.5173 19.584 34.3839 19.3932 34.2949C19.2023 34.206 18.9216 34.106 18.5847 33.9948C18.1805 33.8614 17.8661 33.7391 17.6191 33.628C17.3721 33.5168 17.1699 33.339 17.0015 33.1055C16.8331 32.8721 16.7433 32.572 16.7433 32.194C16.7433 31.8716 16.8219 31.5826 16.9791 31.327C17.1363 31.0824 17.3608 30.8823 17.664 30.7489C17.9559 30.6155 18.3153 30.5488 18.7083 30.5488C19.3258 30.5488 19.8311 30.6933 20.1904 30.9935C20.5609 31.2936 20.763 31.6716 20.8304 32.1384H19.9546C19.9097 31.8939 19.7749 31.6716 19.5728 31.4826C19.3595 31.2936 19.0788 31.1936 18.7195 31.1936C18.3938 31.1936 18.1244 31.2825 17.9335 31.4492C17.7314 31.616 17.6415 31.8605 17.6415 32.1607C17.6415 32.4052 17.7089 32.6053 17.8324 32.7498C17.9672 32.9054 18.1244 33.0166 18.3153 33.1055C18.5061 33.1945 18.7756 33.2834 19.1012 33.3945C19.5054 33.5279 19.8311 33.6502 20.0893 33.7725C20.3363 33.8948 20.5497 34.0726 20.7181 34.3061C20.8865 34.5395 20.9764 34.8619 20.9764 35.2621C20.9539 35.5511 20.8866 35.829 20.7406 36.0846Z" fill="#FF5196"/>
<path d="M25.1194 30.6162V36.8857H24.2997V30.6162H25.1194Z" fill="#FF5196"/>
<path d="M33.4061 31.0943C33.9114 31.4611 34.2482 31.9502 34.4166 32.5727H33.5521C33.4061 32.1947 33.1478 31.8835 32.7997 31.6612C32.4517 31.4277 32.0362 31.3166 31.5534 31.3166C31.1267 31.3166 30.7337 31.4166 30.3969 31.6167C30.06 31.8168 29.7906 32.0947 29.5884 32.4615C29.3976 32.8284 29.2965 33.2619 29.2965 33.7621C29.2965 34.2735 29.3976 34.7181 29.5884 35.0849C29.7793 35.4518 30.06 35.7408 30.4081 35.9409C30.7562 36.141 31.1604 36.241 31.6208 36.241C32.0138 36.241 32.3618 36.1521 32.6874 35.9964C33.0131 35.8297 33.2713 35.5852 33.4847 35.2739C33.698 34.9627 33.8103 34.5847 33.8552 34.1623H31.3625V33.562H34.5401V34.3068C34.484 34.807 34.3268 35.2517 34.0686 35.663C33.8103 36.0743 33.4622 36.3855 33.0243 36.6189C32.5864 36.8524 32.0923 36.9747 31.5309 36.9747C30.9246 36.9747 30.3856 36.8413 29.914 36.5745C29.4424 36.3077 29.0831 35.9298 28.8249 35.4406C28.5666 34.9627 28.4319 34.4068 28.4319 33.7843C28.4319 33.1618 28.5666 32.606 28.8249 32.1281C29.0831 31.6501 29.4537 31.261 29.914 30.9942C30.3744 30.7274 30.9134 30.5829 31.5197 30.5829C32.2832 30.5607 32.9008 30.7385 33.4061 31.0943Z" fill="#FF5196"/>
<path d="M42.8266 36.8857H42.0069L38.717 31.9279V36.8857H37.8973V30.6162H38.717L42.0069 35.574V30.6162H42.8266V36.8857Z" fill="#FF5196"/>
<path d="M54.6387 36.0846C54.4927 36.3403 54.2793 36.5515 53.9874 36.7071C53.6955 36.8628 53.3362 36.9517 52.8983 36.9517C52.4828 36.9517 52.1011 36.8739 51.7754 36.7294C51.4498 36.5738 51.1915 36.3737 50.9894 36.1069C50.7986 35.8401 50.6863 35.54 50.6526 35.2065H51.5284C51.5508 35.3843 51.607 35.5622 51.7081 35.7289C51.8091 35.8957 51.9663 36.0402 52.1572 36.1513C52.348 36.2625 52.5838 36.3181 52.8646 36.3181C53.2239 36.3181 53.5046 36.2292 53.6954 36.0291C53.8863 35.829 53.9874 35.5955 53.9874 35.2954C53.9874 35.0397 53.92 34.8285 53.7853 34.6729C53.6505 34.5173 53.4821 34.3839 53.2912 34.2949C53.1004 34.206 52.8197 34.106 52.4828 33.9948C52.0786 33.8614 51.7642 33.7391 51.5171 33.628C51.2701 33.5168 51.068 33.339 50.8996 33.1055C50.7312 32.8721 50.6414 32.572 50.6414 32.194C50.6414 31.8716 50.7199 31.5826 50.8771 31.327C51.0343 31.0824 51.2589 30.8823 51.5621 30.7489C51.854 30.6155 52.2133 30.5488 52.6063 30.5488C53.2239 30.5488 53.7292 30.6933 54.0885 30.9935C54.459 31.2936 54.6611 31.6716 54.7285 32.1384H53.8527C53.8077 31.8939 53.673 31.6716 53.4709 31.4826C53.2575 31.2936 52.9769 31.1936 52.6176 31.1936C52.2919 31.1936 52.0224 31.2825 51.8316 31.4492C51.6295 31.616 51.5396 31.8605 51.5396 32.1607C51.5396 32.4052 51.607 32.6053 51.7305 32.7498C51.8652 32.9054 52.0224 33.0166 52.2133 33.1055C52.4042 33.1945 52.6737 33.2834 52.9993 33.3945C53.4035 33.5279 53.7291 33.6502 53.9874 33.7725C54.2344 33.8948 54.4478 34.0726 54.6162 34.3061C54.7846 34.5395 54.8744 34.8619 54.8744 35.2621C54.852 35.5511 54.7846 35.829 54.6387 36.0846Z" fill="#FF5196"/>
<path d="M62.0831 30.6162V31.2721H60.2977V36.8857H59.4669V31.2721H57.6815V30.6162H62.0831Z" fill="#FF5196"/>
<path d="M65.9015 30.6152V34.3725C65.9015 34.9839 66.0363 35.4396 66.317 35.7398C66.5977 36.0288 66.9683 36.1844 67.4623 36.1844C67.9451 36.1844 68.3157 36.0399 68.5851 35.7398C68.8546 35.4396 68.9893 34.995 68.9893 34.3836V30.6263H69.8091V34.3836C69.8091 35.2395 69.5957 35.8843 69.169 36.3067C68.7424 36.7402 68.1697 36.9514 67.4511 36.9514C66.7437 36.9514 66.1711 36.7402 65.7444 36.3067C65.3177 35.8731 65.1044 35.2395 65.1044 34.3836V30.6263H65.9015V30.6152Z" fill="#FF5196"/>
<path d="M78.2633 35.4072C78.0051 35.8741 77.6233 36.241 77.1292 36.4966C76.624 36.7523 76.0289 36.8857 75.3327 36.8857H73.3229V30.6162H75.3327C76.0289 30.6162 76.6352 30.7385 77.1292 30.9942C77.6233 31.2498 78.0051 31.6055 78.2633 32.0835C78.5216 32.5615 78.6451 33.1062 78.6451 33.7509C78.6451 34.3846 78.5216 34.9404 78.2633 35.4072ZM77.163 35.5295C77.6009 35.1071 77.8142 34.518 77.8142 33.7509C77.8142 32.9839 77.6009 32.3948 77.163 31.9724C76.7251 31.55 76.0963 31.3388 75.2654 31.3388H74.1313V36.1631H75.2654C76.085 36.1631 76.7251 35.9519 77.163 35.5295Z" fill="#FF5196"/>
<path d="M82.8218 30.6162V36.8857H82.0022V30.6162H82.8218Z" fill="#FF5196"/>
<path d="M90.8616 30.9494C91.3331 31.2273 91.7037 31.6052 91.9731 32.0943C92.2426 32.5834 92.3774 33.1393 92.3774 33.7506C92.3774 34.362 92.2426 34.9178 91.9731 35.4069C91.7037 35.896 91.3331 36.274 90.8616 36.5519C90.39 36.8298 89.8622 36.9632 89.2783 36.9632C88.6944 36.9632 88.1555 36.8298 87.6839 36.5519C87.2123 36.274 86.8305 35.896 86.5611 35.4069C86.2916 34.9178 86.1569 34.362 86.1569 33.7506C86.1569 33.1393 86.2916 32.5834 86.5611 32.0943C86.8305 31.6052 87.2011 31.2273 87.6839 30.9494C88.1667 30.6715 88.6944 30.5381 89.2783 30.5381C89.8622 30.5381 90.39 30.6715 90.8616 30.9494ZM88.0993 31.5941C87.7513 31.7942 87.4818 32.0721 87.2909 32.4501C87.1001 32.8169 86.999 33.2504 86.999 33.7506C86.999 34.2397 87.1001 34.6733 87.2909 35.0512C87.4818 35.4292 87.7513 35.7071 88.0993 35.9072C88.4474 36.1072 88.8292 36.2073 89.2671 36.2073C89.6938 36.2073 90.0868 36.1072 90.4349 35.9072C90.7829 35.7071 91.0524 35.418 91.2433 35.0512C91.4342 34.6844 91.5352 34.2509 91.5352 33.7617C91.5352 33.2615 91.4342 32.828 91.2433 32.4612C91.0524 32.0943 90.7829 31.8053 90.4349 31.6052C90.0868 31.4051 89.705 31.3051 89.2671 31.3051C88.8404 31.294 88.4474 31.394 88.0993 31.5941Z" fill="#FF5196"/>
</svg>
