<svg width="116" height="64" viewBox="0 0 116 64" fill="none" xmlns="http://www.w3.org/2000/svg">
<path d="M31.3046 15.3604L2.37744 29.3604V36.3604H114.377V1.36035L66.1655 23.3604L31.3046 15.3604Z" fill="url(#paint0_linear_1011_6762)"/>
<path d="M1.37744 29.3604L30.8212 15.1147L66.3046 22.9744L115.377 1.36035" stroke="#4C56CC" stroke-linecap="round"/>
<path d="M21.772 52.5898V42.9307H24.5303V52.7437C24.5303 53.9126 24.79 54.75 25.3096 55.2559C25.8359 55.7549 26.5332 56.0044 27.4014 56.0044C28.2627 56.0044 28.9565 55.7549 29.4829 55.2559C30.0093 54.75 30.2725 53.9126 30.2725 52.7437V42.9307H32.9897V52.5898C32.9897 54.4902 32.4565 55.8916 31.3901 56.7939C30.3237 57.6963 28.9907 58.1475 27.3911 58.1475C25.7847 58.1475 24.4448 57.6963 23.3716 56.7939C22.3052 55.8916 21.772 54.4902 21.772 52.5898ZM35.707 62.1567V47.2783H38.209L38.2705 48.5498H38.3218C38.5679 48.126 38.9678 47.7739 39.5215 47.4937C40.0752 47.2065 40.7007 47.063 41.3979 47.063C42.7515 47.063 43.8384 47.5518 44.6587 48.5293C45.479 49.5 45.8892 50.7886 45.8892 52.395V52.7231C45.8892 54.3228 45.4824 55.6147 44.6689 56.5991C43.8555 57.5767 42.7822 58.0654 41.4492 58.0654C40.752 58.0654 40.1367 57.9458 39.6035 57.7065C39.0771 57.4673 38.6704 57.1426 38.3833 56.7324V62.1567H35.707ZM38.3833 54.4561C38.5542 54.873 38.8447 55.2422 39.2549 55.5635C39.6719 55.8779 40.1641 56.0352 40.7314 56.0352C41.5586 56.0352 42.1704 55.7446 42.5669 55.1636C42.9634 54.5757 43.1616 53.7964 43.1616 52.8257V52.2925C43.1616 51.3218 42.9634 50.5493 42.5669 49.9751C42.1704 49.394 41.5552 49.1035 40.7212 49.1035C40.1401 49.1035 39.6479 49.2607 39.2446 49.5752C38.8481 49.8828 38.561 50.2417 38.3833 50.6519V54.4561ZM52.4312 53.7075V53.3999H55.1895V53.6562C55.1895 54.4492 55.4424 55.0439 55.9482 55.4404C56.4541 55.8369 57.1582 56.0352 58.0605 56.0352C58.9629 56.0352 59.6533 55.8438 60.1318 55.4609C60.6172 55.0781 60.8599 54.5723 60.8599 53.9434C60.8599 53.3281 60.6274 52.8462 60.1626 52.4976C59.6978 52.1489 58.7441 51.7729 57.3018 51.3696C55.7363 50.9253 54.5742 50.3647 53.8154 49.688C53.0635 49.0112 52.6841 48.0713 52.6772 46.8682C52.6772 45.6035 53.1523 44.585 54.1025 43.8125C55.0527 43.0332 56.3413 42.6436 57.9683 42.6436C59.5884 42.6436 60.8838 43.0435 61.8545 43.8433C62.832 44.6362 63.3208 45.689 63.3208 47.0015V47.2783H60.6035V47.0527C60.6035 46.3623 60.3813 45.812 59.937 45.4019C59.4995 44.9849 58.8467 44.7764 57.9785 44.7764C57.1104 44.7764 56.4712 44.9473 56.061 45.2891C55.6509 45.6309 55.4458 46.0957 55.4458 46.6836C55.4458 47.2441 55.668 47.6782 56.1123 47.9858C56.5566 48.2935 57.5034 48.6489 58.9526 49.0522C60.4907 49.4897 61.6528 50.064 62.439 50.7749C63.2251 51.479 63.6182 52.4771 63.6182 53.769C63.6182 55.1226 63.1123 56.1924 62.1006 56.9785C61.0957 57.7578 59.7524 58.1475 58.0708 58.1475C56.396 58.1475 55.0356 57.7646 53.9897 56.999C52.9507 56.2334 52.4312 55.1362 52.4312 53.7075ZM65.6279 57.8604V42.2642H68.3042V48.6523C68.6323 48.1807 69.0698 47.7979 69.6167 47.5039C70.1636 47.21 70.813 47.063 71.5649 47.063C72.5698 47.063 73.3901 47.374 74.0259 47.9961C74.6685 48.6113 74.9897 49.6265 74.9897 51.0415V57.8604H72.3237V51.2056C72.3237 50.4673 72.1597 49.9409 71.8315 49.6265C71.5034 49.312 71.0488 49.1548 70.4678 49.1548C69.9619 49.1548 69.5244 49.2949 69.1553 49.5752C68.7861 49.8555 68.5024 50.2349 68.3042 50.7134V57.8604H65.6279ZM76.9995 52.7231V52.395C76.9995 50.7612 77.4883 49.4487 78.4658 48.4575C79.4502 47.4663 80.7422 46.9707 82.3418 46.9707C83.9414 46.9707 85.23 47.4663 86.2075 48.4575C87.1851 49.4487 87.6738 50.7612 87.6738 52.395V52.7231C87.6738 54.3638 87.1851 55.6797 86.2075 56.6709C85.23 57.6621 83.9414 58.1577 82.3418 58.1577C80.7422 58.1577 79.4502 57.6621 78.4658 56.6709C77.4883 55.6797 76.9995 54.3638 76.9995 52.7231ZM79.7271 52.2925V52.8359C79.7271 53.8408 79.9492 54.6372 80.3936 55.2251C80.8447 55.813 81.4941 56.1069 82.3418 56.1069C83.1895 56.1069 83.8354 55.813 84.2798 55.2251C84.7241 54.6372 84.9463 53.8408 84.9463 52.8359V52.2925C84.9463 51.2876 84.7207 50.4912 84.2695 49.9033C83.8184 49.3154 83.1758 49.0215 82.3418 49.0215C81.501 49.0215 80.855 49.3154 80.4038 49.9033C79.9526 50.4912 79.7271 51.2876 79.7271 52.2925ZM88.4326 49.2471V47.2783H94.9028V49.2471H88.4326ZM90.1245 54.856V48.2422L90.145 47.9653V44.5713H92.7803V54.7227C92.7803 55.249 92.8726 55.6079 93.0571 55.7993C93.2485 55.9907 93.5254 56.0864 93.8877 56.0864C94.0518 56.0864 94.2158 56.0693 94.3799 56.0352C94.5508 55.9941 94.7148 55.9429 94.8721 55.8813V57.8501C94.708 57.9253 94.4756 57.9937 94.1748 58.0552C93.8809 58.1167 93.5527 58.1475 93.1904 58.1475C92.2539 58.1475 91.5088 57.8843 90.9551 57.3579C90.4014 56.8315 90.1245 55.9976 90.1245 54.856Z" fill="#263238"/>
<defs>
<linearGradient id="paint0_linear_1011_6762" x1="58.3774" y1="1.36035" x2="58.2089" y2="35.8613" gradientUnits="userSpaceOnUse">
<stop stop-color="#7782FF"/>
<stop offset="1" stop-color="#7782FF" stop-opacity="0"/>
</linearGradient>
</defs>
</svg>
