<svg width="180" height="30" viewBox="0 0 180 30" fill="none" xmlns="http://www.w3.org/2000/svg">
<g clip-path="url(#clip0_1010_6386)">
<path fill-rule="evenodd" clip-rule="evenodd" d="M16.5373 0.0360053C17.1329 0.111943 17.7512 0.272897 18.2125 0.533726C18.7483 0.835825 19.0559 1.0397 19.4646 1.47469C19.518 1.53164 19.5277 1.53412 19.5965 1.59438C19.7988 1.77101 20.2439 2.47591 20.3726 2.74004C21.4789 5.02394 20.7716 7.93351 20.2334 10.2818C20.1031 10.8505 19.8368 11.5703 20.1339 12.1109C20.4066 12.6061 20.889 12.7341 21.4288 12.9833C22.8952 13.661 24.3213 14.6028 24.4507 16.5631C24.6142 19.0344 22.1644 21.0699 19.7017 20.048C18.7248 19.6427 17.9908 18.8355 17.6703 17.7088C17.3158 16.4641 17.6379 15.037 17.8856 13.8253C18.0216 13.1616 18.1656 12.6111 17.8734 11.9689C17.5829 11.3292 17.2325 11.179 16.7007 10.9471C14.8903 10.158 12.5522 9.09733 11.6806 7.22035C11.4491 6.72263 11.2338 6.15888 11.1772 5.52166C11.055 4.15396 11.3649 3.13871 12.0618 2.07476C12.324 1.67526 12.7675 1.23697 13.143 0.958811C13.9815 0.33893 15.2043 -0.135679 16.5373 0.0351799V0.0360053Z" fill="#2AD263"/>
<path fill-rule="evenodd" clip-rule="evenodd" d="M14.9729 19.6362C16.3147 19.821 16.9897 20.4434 17.9115 21.1854L19.0939 22.2486C19.6895 22.8264 20.7182 23.0319 21.5178 22.4013C22.1199 21.9267 22.82 21.4001 23.4739 20.9799C24.3601 20.4096 25.3904 19.8541 26.6658 19.6997C28.9708 19.4215 31.2547 21.0418 31.8487 23.4438C32.535 26.2196 30.7723 28.5489 28.936 29.253C26.2013 30.3021 24.0186 28.7577 22.4615 27.5089C22.2486 27.338 22.0722 27.1746 21.869 26.9922C21.814 26.9427 21.7727 26.9196 21.7177 26.8651L20.7044 25.9101C20.4738 25.6616 19.7956 24.9922 19.5228 24.8461C18.8705 24.4962 18.4035 24.8288 17.8977 25.2093C16.8205 26.0215 15.3937 26.9592 13.8293 26.5737C12.6793 26.2906 11.802 25.4875 11.4095 24.5036C10.9158 23.2655 11.1181 22.0199 11.8716 20.9758C12.3814 20.2684 13.5849 19.4447 14.9737 19.6362H14.9729Z" fill="#2AD263"/>
<path fill-rule="evenodd" clip-rule="evenodd" d="M12.625 10.7869C15.2723 10.9991 16.5559 13.798 15.4779 15.9094C14.9987 16.8487 14.2016 17.4694 13.1236 17.9193C12.5821 18.1455 12.0909 18.3081 11.5292 18.5111C10.9303 18.7274 10.4407 18.8322 10.0692 19.2391C9.62733 19.7236 9.49864 20.2073 9.58119 20.861C9.97452 23.9869 10.1817 27.343 7.14111 29.0012C6.08739 29.5757 4.80867 29.7565 3.52186 29.3867C1.53499 28.8155 -0.183994 26.8419 0.0159063 24.1792C0.100884 23.0418 0.622893 21.9415 1.3707 21.1524C2.78538 19.6568 5.17529 18.8446 7.20262 18.2544C7.7222 18.1034 8.4692 17.9185 8.73384 17.5982C9.17573 17.065 9.02843 16.5541 8.96126 15.7765C8.7913 13.8055 9.04138 12.1472 10.8437 11.1575C11.3075 10.9025 12.0091 10.7374 12.6242 10.7869H12.625Z" fill="#2AD263"/>
<path d="M43.9909 5.4C45.3349 5.4 46.5109 5.68 47.5469 6.184C48.5549 6.688 49.3669 7.416 49.9269 8.368C50.4869 9.32 50.7669 10.412 50.7669 11.644C50.7669 12.904 50.4869 13.996 49.9269 14.948C49.3669 15.9 48.5549 16.628 47.5469 17.132C46.5109 17.636 45.3349 17.888 43.9909 17.888H39.4829V25H36.2629V5.4H43.9909ZM39.4829 15.088H43.7109C44.8589 15.088 45.7829 14.78 46.4549 14.164C47.1269 13.548 47.4909 12.708 47.4909 11.644C47.4909 10.58 47.1549 9.74 46.4829 9.124C45.8109 8.508 44.8869 8.2 43.7389 8.2H39.4829V15.088ZM60.8594 10.664V13.492H59.5154C58.2554 13.492 57.3594 13.912 56.7994 14.724C56.2394 15.536 55.9594 16.572 55.9594 17.804V25H52.9354V10.664H55.6234L55.9594 12.82C56.3514 12.148 56.8834 11.644 57.5554 11.252C58.1994 10.86 59.0674 10.664 60.1874 10.664H60.8594ZM65.6072 5.456C65.9432 5.792 66.1392 6.24 66.1392 6.744C66.1392 7.276 65.9432 7.724 65.6072 8.06C65.2432 8.396 64.7952 8.564 64.2912 8.564C63.7592 8.564 63.3112 8.396 62.9752 8.06C62.6112 7.724 62.4432 7.276 62.4432 6.744C62.4432 6.24 62.6112 5.792 62.9752 5.456C63.3112 5.12 63.7592 4.924 64.2912 4.924C64.7952 4.924 65.2432 5.12 65.6072 5.456ZM62.7792 10.664H65.8032V25H62.7792V10.664ZM89.1514 12.036C90.1314 13.044 90.6354 14.668 90.6354 16.908V25H87.6114V16.936C87.6114 15.704 87.3594 14.752 86.8554 14.08C86.3514 13.436 85.5954 13.1 84.6154 13.1C83.5514 13.1 82.7394 13.492 82.1234 14.22C81.5074 14.948 81.2274 15.956 81.2274 17.244V25H78.1754V16.936C78.1754 15.676 77.8954 14.724 77.3914 14.08C76.8874 13.436 76.1314 13.1 75.1514 13.1C74.1154 13.1 73.3034 13.492 72.6874 14.248C72.0714 15.032 71.7914 16.04 71.7914 17.328V25H68.7674V10.664H71.3994L71.7354 12.54C72.7434 11.196 74.1434 10.524 75.9354 10.496C76.9434 10.496 77.8114 10.72 78.5954 11.14C79.3514 11.588 79.9394 12.232 80.3594 13.1C80.8634 12.288 81.5074 11.644 82.3474 11.196C83.1594 10.748 84.1394 10.496 85.3154 10.496C86.8834 10.496 88.1434 11.028 89.1514 12.036ZM93.7128 13.996C94.3008 12.876 95.1128 12.036 96.1768 11.42C97.2408 10.804 98.4448 10.496 99.8168 10.496C101.189 10.496 102.393 10.776 103.457 11.336C104.521 11.896 105.333 12.708 105.949 13.716C106.565 14.752 106.873 15.956 106.901 17.328C106.901 17.72 106.873 18.084 106.817 18.476H96.0088V18.644C96.0648 19.904 96.4568 20.884 97.1848 21.612C97.8848 22.34 98.8368 22.704 100.013 22.704C100.937 22.704 101.721 22.508 102.365 22.06C102.981 21.612 103.401 20.996 103.625 20.184H106.649C106.369 21.64 105.669 22.844 104.521 23.768C103.373 24.72 101.945 25.168 100.237 25.168C98.7248 25.168 97.4368 24.888 96.3168 24.272C95.1968 23.656 94.3568 22.816 93.7408 21.696C93.1248 20.604 92.8448 19.316 92.8448 17.86C92.8448 16.404 93.1248 15.116 93.7128 13.996ZM103.821 16.264C103.681 15.228 103.261 14.416 102.561 13.828C101.861 13.24 100.993 12.932 99.9288 12.932C98.9208 12.932 98.0808 13.24 97.3528 13.856C96.6248 14.472 96.2328 15.256 96.1208 16.264H103.821ZM110.16 13.324H107.668V10.664H110.16V6.66H113.212V10.664H116.656V13.324H113.212V20.8C113.212 21.36 113.324 21.78 113.548 22.004C113.772 22.228 114.136 22.34 114.696 22.34H116.992V25H114.08C112.708 25 111.7 24.692 111.084 24.048C110.468 23.432 110.16 22.452 110.16 21.108V13.324ZM121.254 24.272C120.134 23.656 119.294 22.816 118.678 21.696C118.062 20.576 117.782 19.288 117.782 17.832C117.782 16.404 118.062 15.144 118.678 14.024C119.294 12.904 120.134 12.036 121.254 11.42C122.374 10.804 123.634 10.496 125.09 10.496C126.518 10.496 127.778 10.804 128.898 11.42C130.018 12.036 130.858 12.904 131.474 14.024C132.09 15.144 132.398 16.404 132.398 17.832C132.398 19.288 132.09 20.576 131.474 21.696C130.858 22.816 130.018 23.656 128.898 24.272C127.778 24.888 126.518 25.168 125.09 25.168C123.634 25.168 122.374 24.888 121.254 24.272ZM128.142 21.276C128.926 20.38 129.318 19.232 129.318 17.832C129.318 16.432 128.926 15.312 128.142 14.416C127.358 13.52 126.35 13.072 125.09 13.072C123.802 13.072 122.794 13.52 122.038 14.416C121.254 15.312 120.89 16.432 120.89 17.832C120.89 19.232 121.254 20.38 122.038 21.276C122.794 22.172 123.802 22.592 125.09 22.592C126.35 22.592 127.358 22.172 128.142 21.276ZM134.83 5.4H137.854V17.664L144.406 10.664H147.906L142.558 16.432L148.242 25H144.658L140.402 18.644L137.854 21.332V25H134.83V5.4ZM149.303 13.996C149.891 12.876 150.703 12.036 151.767 11.42C152.831 10.804 154.035 10.496 155.407 10.496C156.779 10.496 157.983 10.776 159.047 11.336C160.111 11.896 160.923 12.708 161.539 13.716C162.155 14.752 162.463 15.956 162.491 17.328C162.491 17.72 162.463 18.084 162.407 18.476H151.599V18.644C151.655 19.904 152.047 20.884 152.775 21.612C153.475 22.34 154.427 22.704 155.603 22.704C156.527 22.704 157.311 22.508 157.955 22.06C158.571 21.612 158.991 20.996 159.215 20.184H162.239C161.959 21.64 161.259 22.844 160.111 23.768C158.963 24.72 157.535 25.168 155.827 25.168C154.315 25.168 153.027 24.888 151.907 24.272C150.787 23.656 149.947 22.816 149.331 21.696C148.715 20.604 148.435 19.316 148.435 17.86C148.435 16.404 148.715 15.116 149.303 13.996ZM159.411 16.264C159.271 15.228 158.851 14.416 158.151 13.828C157.451 13.24 156.583 12.932 155.519 12.932C154.511 12.932 153.671 13.24 152.943 13.856C152.215 14.472 151.823 15.256 151.711 16.264H159.411ZM176.639 12.064C177.703 13.128 178.263 14.808 178.263 17.104V25H175.211V17.272C175.211 15.928 174.903 14.892 174.343 14.164C173.755 13.464 172.915 13.1 171.795 13.1C170.591 13.1 169.639 13.52 168.967 14.36C168.295 15.2 167.959 16.32 167.959 17.776V25H164.935V10.664H167.567L167.903 12.54C168.967 11.196 170.507 10.496 172.495 10.496C174.175 10.496 175.575 11.028 176.639 12.064Z" fill="white"/>
</g>
<defs>
<clipPath id="clip0_1010_6386">
<rect width="180" height="29.6004" fill="white"/>
</clipPath>
</defs>
</svg>
